<svg width="21" height="21" viewBox="0 0 21 21" fill="none" xmlns="http://www.w3.org/2000/svg">
<path d="M14.1087 9.8418C11.7564 9.8418 9.84253 11.7557 9.84253 14.108C9.84253 16.4603 11.7564 18.3742 14.1087 18.3742C16.4611 18.3742 18.375 16.4603 18.375 14.108C18.375 11.7557 16.4611 9.8418 14.1087 9.8418ZM15.9577 13.2817L13.8245 15.743C13.7346 15.846 13.6066 15.9077 13.4701 15.9123C13.4642 15.9123 13.4583 15.9123 13.4524 15.9123C13.3218 15.9123 13.1964 15.8604 13.1045 15.7679L11.9559 14.6193C11.7636 14.427 11.7636 14.1152 11.9559 13.9229C12.1483 13.7306 12.46 13.7306 12.6523 13.9229L13.4275 14.6974L15.214 12.6358C15.3919 12.4311 15.7023 12.4081 15.9084 12.586C16.1132 12.7658 16.1355 13.0762 15.9577 13.2817Z" fill="#595959"/>
<path d="M8.67438 2.62207L5.48457 2.6352C5.07107 2.6352 4.68383 2.86492 4.48693 3.2259L2.81982 6.24507L8.35278 6.23194L8.67438 2.62207Z" fill="#595959"/>
<path d="M15.5395 6.21827L13.8527 3.19911C13.6492 2.83812 13.2686 2.6084 12.8485 2.6084L9.65869 2.62153L9.99342 6.2314L15.5395 6.21827Z" fill="#595959"/>
<path d="M15.7496 8.77151C15.2311 8.61398 14.6798 8.52866 14.1087 8.52866C11.0305 8.52866 8.52984 11.0293 8.52984 14.1076C8.52984 14.6786 8.61516 15.2365 8.77925 15.755L3.67948 15.7681C3.67292 15.7681 3.67292 15.7681 3.67292 15.7681C3.10847 15.7681 2.64246 15.3021 2.64246 14.7311L2.61621 7.22911L8.68736 7.21598H9.67187L15.743 7.19629L15.7496 8.77151Z" fill="#595959"/>
</svg>
