<svg width="21" height="19" viewBox="0 0 21 19" fill="none" xmlns="http://www.w3.org/2000/svg">
<path d="M17.7996 3.79728H17.0782C16.8571 3.79995 16.6398 3.73981 16.4516 3.62385C16.2634 3.5079 16.112 3.34089 16.0149 3.14226L15.1605 1.44299C14.9454 1.00793 14.6125 0.642018 14.1996 0.386912C13.7868 0.131805 13.3106 -0.00224403 12.8252 2.84198e-05H7.58502C7.0997 -0.00224403 6.62349 0.131805 6.21062 0.386912C5.79775 0.642018 5.46481 1.00793 5.24971 1.44299L4.39532 3.14226C4.29829 3.34089 4.14685 3.5079 3.95863 3.62385C3.77042 3.73981 3.55315 3.79995 3.33209 3.79728H2.61061C1.91824 3.79728 1.25422 4.07233 0.764631 4.56191C0.275046 5.0515 0 5.71552 0 6.4079V15.901C0 16.5934 0.275046 17.2574 0.764631 17.747C1.25422 18.2366 1.91824 18.5117 2.61061 18.5117H17.7996C18.492 18.5117 19.156 18.2366 19.6456 17.747C20.1352 17.2574 20.4103 16.5934 20.4103 15.901V6.4079C20.4103 5.71552 20.1352 5.0515 19.6456 4.56191C19.156 4.07233 18.492 3.79728 17.7996 3.79728ZM10.2051 15.1891C9.2194 15.1891 8.25582 14.8967 7.43622 14.3491C6.61662 13.8015 5.97782 13.0231 5.6006 12.1124C5.22338 11.2017 5.12469 10.1996 5.31699 9.23284C5.5093 8.26606 5.98397 7.37802 6.68098 6.681C7.37799 5.98399 8.26603 5.50932 9.23282 5.31702C10.1996 5.12471 11.2017 5.22341 12.1124 5.60063C13.0231 5.97785 13.8014 6.61665 14.3491 7.43625C14.8967 8.25585 15.189 9.21943 15.189 10.2052C15.1865 11.5262 14.6606 12.7924 13.7265 13.7265C12.7924 14.6606 11.5262 15.1865 10.2051 15.1891Z" fill="black"/>
<path d="M10.2045 13.7644C12.1706 13.7644 13.7644 12.1706 13.7644 10.2045C13.7644 8.23836 12.1706 6.64453 10.2045 6.64453C8.23836 6.64453 6.64453 8.23836 6.64453 10.2045C6.64453 12.1706 8.23836 13.7644 10.2045 13.7644Z" fill="black"/>
</svg>
