<svg width="42" height="39" viewBox="0 0 42 39" fill="none" xmlns="http://www.w3.org/2000/svg">
<g filter="url(#filter0_d_2306_6017)">
<g filter="url(#filter1_d_2306_6017)">
<path fill-rule="evenodd" clip-rule="evenodd" d="M8.17098 6.5338L7.00119 8.07853L7.00506 8.08114L6.90293 8.21581C6.21179 9.01692 5.06422 11.5507 5.06422 11.5507C4.75914 12.6496 5.59857 13.8238 6.40026 14.6468C6.43443 15.0611 6.67973 15.4875 7.10287 15.7807L9.60805 17.5165C9.94428 17.7496 10.3317 17.8549 10.6881 17.8379L11.0544 18.0918L12.1677 18.8634L11.8232 20.1614L12.2027 20.4245L12.8155 19.3123L19.47 23.9241C19.5645 24.2536 19.7884 24.5724 20.1255 24.8062L26.2465 29.0483C26.6217 29.3084 27.0592 29.4088 27.4484 29.3597C28.2699 29.7671 29.6158 30.2722 30.2436 29.5951L33.58 25.1889L36.916 20.7831C37.393 20.0014 36.4713 18.9356 35.8111 18.3157C35.7386 17.9461 35.5028 17.5799 35.1274 17.3197L29.0066 13.0777C28.6692 12.8439 28.2829 12.7395 27.9264 12.7565L21.2279 8.11435L22.0656 7.28541L21.6863 7.02237L20.603 7.68122L19.5107 6.92431L19.1429 6.65993C19.0454 6.33308 18.8235 6.01944 18.4891 5.78776L15.9839 4.05195C15.643 3.81577 15.2499 3.7105 14.8898 3.73057C13.809 3.22811 12.2807 2.75152 11.2318 3.40539C11.2318 3.40539 9.07325 5.23816 8.49298 6.11607L8.17468 6.5363L8.17098 6.5338Z" fill="white"/>
</g>
<rect width="2.04119" height="5.09078" rx="1" transform="matrix(-0.833323 -0.552941 0.590024 -0.807497 31.499 26.8865)" fill="#242E42"/>
<rect width="2.04352" height="4.07646" rx="1" transform="matrix(-0.833427 -0.552798 0.590179 -0.807393 29.7146 29.3431)" fill="#F52D56"/>
<rect width="1.01748" height="5.07899" rx="0.508739" transform="matrix(-0.832945 -0.553463 0.589462 -0.807873 7.1062 9.40645)" fill="#242E42"/>
<rect width="2.04352" height="4.07646" rx="1" transform="matrix(-0.833427 -0.552798 0.590179 -0.807393 33.8833 23.6113)" fill="#F52D56"/>
<path fill-rule="evenodd" clip-rule="evenodd" d="M14.4453 11.1879L14.452 11.1928C15.772 9.65415 16.8219 8.79552 17.6429 8.34296C18.5477 7.84445 19.1741 7.83816 19.5739 7.95674C19.5799 7.95834 19.5852 7.9609 19.5906 7.96235C19.6659 7.98549 19.7325 8.01252 19.7919 8.04268C20.0381 8.16515 20.1483 8.31934 20.1483 8.31934L22.818 12.3985C22.0258 12.3715 20.0317 14.5068 19.2958 15.3258C18.6454 16.209 16.9703 18.5804 17.1913 19.3079L12.4037 17.8296C12.4037 17.8296 12.2201 17.7653 12.0362 17.5665C11.9919 17.5198 11.9496 17.4659 11.9077 17.4035C11.904 17.3982 11.8993 17.3918 11.8953 17.3858C11.6778 17.0433 11.5311 16.4606 11.8145 15.4988C12.0732 14.6266 12.6864 13.4432 13.9227 11.8428L13.916 11.8379C14.0058 11.7269 14.0941 11.6192 14.1811 11.5133C14.267 11.4069 14.3545 11.2984 14.4453 11.1879Z" fill="#242E42"/>
<path fill-rule="evenodd" clip-rule="evenodd" d="M23.0496 23.2819L26.6729 18.8301L28.8636 16.1386L29.0008 15.9698C30.4473 15.585 32.187 16.8103 33.2477 17.7374L25.8303 26.851C24.6319 26.0933 22.9649 24.7782 23.0008 23.3419L23.0496 23.2819Z" fill="#242E42"/>
<path fill-rule="evenodd" clip-rule="evenodd" d="M22.0604 25.4573C21.0688 24.7985 13.6232 19.8514 13.6232 19.8514C13.6232 19.8514 18.4773 20.6037 19.4644 21.2596C20.4515 21.9154 23.052 26.1162 22.0604 25.4573Z" fill="#242E42"/>
<path fill-rule="evenodd" clip-rule="evenodd" d="M30.4181 13.963C29.4264 13.3041 21.9809 8.35705 21.9809 8.35705C21.9809 8.35705 24.5284 12.5226 25.5155 13.1784C26.5026 13.8343 31.4097 14.6218 30.4181 13.963Z" fill="#242E42"/>
</g>
<defs>
<filter id="filter0_d_2306_6017" x="0" y="3.08693" width="40.0479" height="35.8395" filterUnits="userSpaceOnUse" color-interpolation-filters="sRGB">
<feFlood flood-opacity="0" result="BackgroundImageFix"/>
<feColorMatrix in="SourceAlpha" type="matrix" values="0 0 0 0 0 0 0 0 0 0 0 0 0 0 0 0 0 0 127 0" result="hardAlpha"/>
<feOffset dx="-1" dy="5"/>
<feGaussianBlur stdDeviation="2"/>
<feComposite in2="hardAlpha" operator="out"/>
<feColorMatrix type="matrix" values="0 0 0 0 0 0 0 0 0 0 0 0 0 0 0 0 0 0 0.25 0"/>
<feBlend mode="normal" in2="BackgroundImageFix" result="effect1_dropShadow_2306_6017"/>
<feBlend mode="normal" in="SourceGraphic" in2="effect1_dropShadow_2306_6017" result="shape"/>
</filter>
<filter id="filter1_d_2306_6017" x="1" y="1.08693" width="40.0479" height="34.8395" filterUnits="userSpaceOnUse" color-interpolation-filters="sRGB">
<feFlood flood-opacity="0" result="BackgroundImageFix"/>
<feColorMatrix in="SourceAlpha" type="matrix" values="0 0 0 0 0 0 0 0 0 0 0 0 0 0 0 0 0 0 127 0" result="hardAlpha"/>
<feOffset dy="2"/>
<feGaussianBlur stdDeviation="2"/>
<feColorMatrix type="matrix" values="0 0 0 0 0 0 0 0 0 0 0 0 0 0 0 0 0 0 0.2 0"/>
<feBlend mode="normal" in2="BackgroundImageFix" result="effect1_dropShadow_2306_6017"/>
<feBlend mode="normal" in="SourceGraphic" in2="effect1_dropShadow_2306_6017" result="shape"/>
</filter>
</defs>
</svg>
