<svg width="23" height="23" viewBox="0 0 23 23" fill="none" xmlns="http://www.w3.org/2000/svg">
<path d="M3.2983 9.66169C2.93449 8.65478 2.75259 8.15134 2.83016 7.82873C2.91499 7.47588 3.16593 7.20079 3.48668 7.10903C3.77993 7.02512 4.23612 7.22787 5.14849 7.63338C5.95549 7.99206 6.35899 8.17139 6.73811 8.16142C7.15553 8.15043 7.55707 7.98304 7.8765 7.68685C8.16661 7.41785 8.36119 6.98918 8.75037 6.13185L9.60806 4.24242C10.3245 2.66414 10.6827 1.875 11.25 1.875C11.8173 1.875 12.1755 2.66414 12.8919 4.24242L13.7497 6.13185C14.1388 6.98918 14.3334 7.41785 14.6235 7.68685C14.9429 7.98304 15.3444 8.15043 15.7619 8.16142C16.141 8.17139 16.5445 7.99206 17.3515 7.63338C18.2639 7.22787 18.7201 7.02512 19.0133 7.10903C19.3341 7.20079 19.585 7.47588 19.6699 7.82873C19.7474 8.15134 19.5655 8.65478 19.2017 9.66159L17.6379 13.9896C16.9689 15.8409 16.6345 16.7666 15.9345 17.2896C15.2346 17.8125 14.3301 17.8125 12.5211 17.8125H9.97893C8.16993 17.8125 7.26541 17.8125 6.56545 17.2896C5.8655 16.7666 5.53103 15.8409 4.86208 13.9896L3.2983 9.66169Z" stroke="black" stroke-width="1.40625"/>
<path d="M11.25 13.125H11.259" stroke="black" stroke-width="1.40625" stroke-linecap="round" stroke-linejoin="round"/>
<path d="M6.5625 20.625H15.9375" stroke="black" stroke-width="1.40625" stroke-linecap="round"/>
</svg>
