<svg width="22" height="21" viewBox="0 0 22 21" fill="none" xmlns="http://www.w3.org/2000/svg">
<path d="M11 0C10.7129 0 10.4375 0.119358 10.2345 0.331817C10.0315 0.544276 9.91741 0.832433 9.91741 1.1329V13.1303L6.35567 9.3917C6.15181 9.17837 5.87532 9.05853 5.58702 9.05853C5.29873 9.05853 5.02224 9.17837 4.81838 9.3917C4.61453 9.60503 4.5 9.89437 4.5 10.1961C4.5 10.4978 4.61453 10.7871 4.81838 11.0004L10.2314 16.6649C10.332 16.7711 10.4517 16.8554 10.5837 16.9129C10.7156 16.9704 10.8571 17 11 17C11.1429 17 11.2844 16.9704 11.4163 16.9129C11.5483 16.8554 11.668 16.7711 11.7686 16.6649L17.1816 11.0004C17.2826 10.8948 17.3626 10.7694 17.4173 10.6314C17.4719 10.4934 17.5 10.3454 17.5 10.1961C17.5 10.0467 17.4719 9.89876 17.4173 9.76074C17.3626 9.62273 17.2826 9.49733 17.1816 9.3917C17.0807 9.28607 16.9608 9.20228 16.829 9.14512C16.6971 9.08795 16.5557 9.05853 16.413 9.05853C16.2702 9.05853 16.1289 9.08795 15.997 9.14512C15.8651 9.20228 15.7453 9.28607 15.6443 9.3917L12.0826 13.1303V1.1329C12.0826 0.832433 11.9685 0.544276 11.7655 0.331817C11.5625 0.119358 11.2871 0 11 0Z" fill="black"/>
<path d="M20.9 18H1.1C0.808262 18 0.528472 18.158 0.322183 18.4393C0.115892 18.7206 0 19.1022 0 19.5C0 19.8978 0.115892 20.2794 0.322183 20.5607C0.528472 20.842 0.808262 21 1.1 21H20.9C21.1917 21 21.4715 20.842 21.6778 20.5607C21.8841 20.2794 22 19.8978 22 19.5C22 19.1022 21.8841 18.7206 21.6778 18.4393C21.4715 18.158 21.1917 18 20.9 18Z" fill="black"/>
</svg>
