<svg width="46" height="46" viewBox="0 0 46 46" fill="none" xmlns="http://www.w3.org/2000/svg">
<g clip-path="url(#clip0_2284_3269)">
<path d="M20.3197 8.38883C20.1102 8.38883 19.9034 8.29186 19.7697 8.10851C19.1492 7.25845 18.0451 6.28328 16.3078 6.47037C14.2624 6.69005 12.7435 6.03368 11.8293 5.44444C11.5118 5.23981 11.419 4.81442 11.6218 4.49429C11.8247 4.17407 12.2467 4.08057 12.5641 4.28512C13.2944 4.75565 14.5115 5.27988 16.1633 5.10214C18.6703 4.83374 20.1874 6.35933 20.8687 7.293C21.092 7.59897 21.027 8.0297 20.7235 8.25491C20.6017 8.3452 20.4602 8.38883 20.3197 8.38883Z" fill="#FFD064"/>
<path d="M13.1766 12.0423C13.0548 12.0423 12.9317 12.0095 12.8203 11.9405C12.4991 11.7418 12.3987 11.3182 12.5958 10.9943C13.4703 9.55767 15.073 8.5703 17.2306 8.13895C18.8038 7.82452 20.1238 7.91063 20.179 7.91455C20.555 7.94055 20.8388 8.26887 20.813 8.64795C20.7872 9.02676 20.4608 9.31083 20.0865 9.28732C20.0392 9.28412 15.4064 9.00717 13.7587 11.7141C13.6299 11.9257 13.4059 12.0423 13.1766 12.0423Z" fill="#FFD064"/>
<path d="M23.4607 38.4046C34.6656 38.4046 40.8613 21.8318 23.1669 9.03167C22.7268 8.71323 22.4654 8.20058 22.4713 7.65436C22.4762 7.20297 22.618 6.76476 22.8747 6.39494C23.7031 5.20213 24.8954 3.16167 25.6105 1.51819C25.7817 1.1246 25.5367 0.701258 25.0786 0.701258C24.0158 0.701347 24.0158 0 22.953 0C21.8901 0 21.8901 0.701347 20.8272 0.701347C19.9215 0.701347 19.5499 -0.0844182 19.1096 0.487096C17.8254 2.15373 22.224 8.01465 22.224 8.01465C2.7979 20.892 9.06151 38.4047 20.5309 38.4047H23.4607V38.4046Z" fill="#EABC6B"/>
<path d="M27.8655 8.01456C27.8655 8.01456 32.3294 2.17261 31.0458 0.496803C30.6083 -0.0743556 30.2353 0.701347 29.3305 0.701347C28.2675 0.701258 28.2675 0 27.2045 0C26.1416 0 26.1416 0.701258 25.0787 0.701258C25.0264 0.701258 24.9786 0.69832 24.9312 0.695025C24.5041 2.541 22.5795 5.41683 21.4782 6.95666C21.9119 7.59843 22.2242 8.01447 22.2242 8.01447C21.9651 8.18624 21.7114 8.359 21.4614 8.53238C40.0218 21.3963 33.8114 38.4046 22.4602 38.4046H29.6273C41.1315 38.4046 47.3563 20.9347 27.8655 8.01456Z" fill="#E8AE4D"/>
<path d="M28.6953 10.092C26.1016 10.7526 23.5391 10.7526 20.9448 10.092C20.0419 9.86211 19.5301 8.83831 19.855 7.90767C19.8586 7.89725 19.8622 7.88683 19.8659 7.87641C20.1383 7.09617 20.9109 6.65831 21.6682 6.85003C23.7921 7.38771 25.8474 7.38789 27.9719 6.85003C28.7292 6.65831 29.5018 7.09617 29.7742 7.87641C29.7778 7.88683 29.7815 7.89725 29.7851 7.90767C30.1101 8.83831 29.5982 9.86211 28.6953 10.092Z" fill="#FFE07D"/>
<path d="M4.30737 41.4094L14.1855 45.1168C15.0244 45.4317 15.9124 45.593 16.8076 45.593H26.9877C28.4123 45.593 29.8076 45.1848 31.011 44.4158L43.7575 36.2715C44.5985 35.5185 44.7544 34.2531 44.1217 33.3155C43.4295 32.2896 42.2843 32.1114 41.0242 32.7122L28.6143 38.222L28.6289 36.1918C28.4646 34.5253 27.1921 33.1879 25.5478 32.9533L17.9905 32.0759C16.2472 31.8272 15.3761 31.2381 13.8562 30.3416C11.7814 29.1177 9.42083 28.4727 7.01701 28.4727H4.30737V41.4094Z" fill="#FFDDCE"/>
<path d="M13.5856 43.1414C14.4675 43.4724 15.4011 43.6419 16.3421 43.6419H27.0441C28.1835 43.6419 29.3047 43.3929 30.3331 42.9182L37.8164 38.1367C38.5117 37.6924 38.9531 36.9191 38.9305 36.0894C38.9185 35.6494 38.7851 35.209 38.5238 34.8218C38.5238 34.8218 38.296 34.4281 38.0618 34.0274L28.6143 38.222L28.6289 36.1918C28.4646 34.5253 27.1921 33.1879 25.5478 32.9533L17.9905 32.0759C16.2472 31.8272 15.3761 31.2381 13.8562 30.3416C11.7814 29.1177 9.42083 28.4727 7.01701 28.4727H4.30737V39.659L13.5856 43.1414Z" fill="#FFDDCE"/>
<path d="M44.1216 33.3156C43.4294 32.2898 42.2842 32.1115 41.0241 32.7123L37.6107 34.2278C37.776 34.4917 37.9075 34.7023 37.9075 34.7023C38.5401 35.6399 38.3843 36.9053 37.5433 37.6583L30.1161 42.4038C29.1379 42.8554 28.0713 43.0923 26.9875 43.0923H16.8076C15.9124 43.0923 15.0244 42.931 14.1855 42.6161L4.30737 38.9086V41.4094L14.1855 45.117C15.0244 45.4319 15.9124 45.5931 16.8076 45.5931H25.1249H26.9878C28.4124 45.5931 29.8077 45.1849 31.0111 44.416L43.7576 36.2716C44.5984 35.5186 44.7544 34.2531 44.1216 33.3156Z" fill="#FFCBBE"/>
<path d="M27.7025 34.1001L27.7021 34.1495L27.7348 34.1351C27.7242 34.1233 27.7132 34.1119 27.7025 34.1001Z" fill="#F5DBCC"/>
<path d="M28.6141 38.2207H20.8976C20.5208 38.2207 20.2153 37.9128 20.2153 37.5327C20.2153 37.1527 20.5207 36.8447 20.8976 36.8447H28.6241L28.6141 38.2207Z" fill="#FFCBBE"/>
<path d="M6.43304 43.3932C6.43304 44.1159 5.85205 44.7017 5.13532 44.7017H2.00329C1.28656 44.7017 0.705566 44.1159 0.705566 43.3932V27.3701C0.705566 26.6474 1.28656 26.0615 2.00329 26.0615H5.13532C5.85205 26.0615 6.43304 26.6474 6.43304 27.3701V43.3932Z" fill="#407093"/>
<path d="M26.5476 21.3206C26.2352 21.2092 25.9477 21.1027 25.6824 20.9999V16.6133C26.4894 16.7482 26.9738 17.1692 27.0093 17.201C27.2865 17.4551 27.7154 17.4364 27.9697 17.1583C28.2252 16.879 28.2078 16.4439 27.9308 16.1862C27.8828 16.1414 27.0472 15.3823 25.6823 15.2238V14.2456C25.6823 13.8656 25.3769 13.5576 25 13.5576C24.6231 13.5576 24.3177 13.8655 24.3177 14.2456V15.2796C24.1532 15.3113 23.9847 15.3518 23.8115 15.4043C22.6541 15.7558 21.789 16.7565 21.5537 18.0157C21.3401 19.1584 21.6994 20.2574 22.4914 20.8837C22.946 21.2433 23.5184 21.5725 24.3177 21.9245V27.3655C23.5281 27.3321 23.0432 27.1822 22.1957 26.6232C21.8803 26.4153 21.4576 26.5043 21.2513 26.8223C21.045 27.1402 21.1334 27.5666 21.4488 27.7746C22.5625 28.5093 23.3071 28.701 24.3177 28.7406V29.8327C24.3177 30.2127 24.6231 30.5207 25 30.5207C25.3769 30.5207 25.6823 30.2127 25.6823 29.8327V28.6922C27.5976 28.3789 28.7152 26.8156 28.9583 25.3574C29.2622 23.5353 28.3158 21.9509 26.5476 21.3206ZM23.3335 19.801C22.9439 19.493 22.7759 18.9065 22.8948 18.2705C23.0049 17.6807 23.407 16.9642 24.2052 16.7218C24.2432 16.7102 24.2805 16.7002 24.3179 16.6902V20.4064C23.9093 20.2008 23.5889 20.003 23.3335 19.801ZM27.6128 25.129C27.4622 26.0319 26.805 26.9958 25.6824 27.2859V22.4689C25.8151 22.5179 25.9508 22.5673 26.0928 22.6179C27.7907 23.223 27.6854 24.693 27.6128 25.129Z" fill="white"/>
</g>
<defs>
<clipPath id="clip0_2284_3269">
<rect width="45.2151" height="45.5929" fill="white"/>
</clipPath>
</defs>
</svg>
