<svg width="24" height="24" viewBox="0 0 24 24" fill="none" xmlns="http://www.w3.org/2000/svg">
<path d="M4.49998 13C3.122 13 2 14.122 2 15.5C2 16.878 3.122 18 4.49998 18C5.87797 18 6.99997 16.878 6.99997 15.5C6.99997 14.122 5.87797 13 4.49998 13ZM4.49998 17C3.67297 17 2.99998 16.327 2.99998 15.5C2.99998 14.673 3.67297 14 4.49998 14C5.327 14 5.99998 14.673 5.99998 15.5C5.99998 16.327 5.327 17 4.49998 17Z" fill="#595959"/>
<path d="M19.5 13C18.122 13 17 14.122 17 15.5C17 16.878 18.122 18 19.5 18C20.878 18 22 16.878 22 15.5C22 14.122 20.878 13 19.5 13ZM19.5 17C18.673 17 18 16.327 18 15.5C18 14.673 18.673 14 19.5 14C20.327 14 21 14.673 21 15.5C21 16.327 20.327 17 19.5 17Z" fill="#595959"/>
<path d="M21 9.99998H20.155C19.845 9.99998 19.542 9.894 19.301 9.69998L15.361 6.54797C14.918 6.195 14.364 6 13.798 6H6.57C5.73202 6 4.95502 6.41602 4.49002 7.113L3.639 8.391C3.384 8.772 2.958 9 2.49998 9C1.122 9 0 10.122 0 11.5V13.5C0 14.878 1.122 16 2.49998 16C2.52398 16 2.544 15.99 2.56697 15.987C2.52698 15.83 2.49998 15.669 2.49998 15.5C2.49998 14.395 3.39502 13.5 4.5 13.5C5.60498 13.5 6.50002 14.395 6.50002 15.5C6.50002 15.669 6.47302 15.83 6.43303 15.987C6.45605 15.99 6.47602 16 6.50002 16H17.5C17.524 16 17.544 15.99 17.567 15.987C17.527 15.83 17.5 15.669 17.5 15.5C17.5 14.395 18.395 13.5 19.5 13.5C20.605 13.5 21.5 14.395 21.5 15.5C21.5 15.669 21.473 15.83 21.433 15.987C21.456 15.99 21.476 16 21.5 16C22.925 16 24 14.925 24 13.5C24 11.803 22.949 9.99998 21 9.99998ZM9.50002 11H5.50003C5.32702 11 5.16605 10.91 5.07502 10.763C4.98398 10.616 4.97503 10.431 5.05303 10.277L6.05302 8.277C6.177 8.02898 6.47602 7.92998 6.72403 8.05298C6.97102 8.17697 7.07105 8.47697 6.94805 8.724L6.30905 9.99998H9.50006C9.77606 9.99998 10.0001 10.224 10.0001 10.5C10.0001 10.776 9.77602 11 9.50002 11ZM13.5 13H12.5C12.224 13 12 12.776 12 12.5C12 12.224 12.224 12 12.5 12H13.5C13.776 12 14 12.224 14 12.5C14 12.776 13.776 13 13.5 13ZM16.5 11H11.5C11.224 11 11 10.776 11 10.5V8.49998C11 8.22398 11.224 7.99997 11.5 7.99997C11.776 7.99997 12 8.22398 12 8.49998V9.99998H16.5C16.776 9.99998 17 10.224 17 10.5C17 10.776 16.776 11 16.5 11Z" fill="#595959"/>
</svg>
