<svg width="18" height="18" viewBox="0 0 18 18" fill="none" xmlns="http://www.w3.org/2000/svg">
<path d="M17.16 11.582C17.16 9.44067 15.9316 7.52958 14.0917 6.59998C14.0346 10.7057 10.7059 14.0345 6.6001 14.0916C7.5297 15.9315 9.44079 17.1599 11.5821 17.1599C12.5861 17.1599 13.5625 16.8925 14.4203 16.3845L17.1357 17.1356L16.3846 14.4202C16.8927 13.5624 17.16 12.586 17.16 11.582Z" fill="black"/>
<path d="M13.1999 6.59997C13.1999 2.96067 10.2393 0 6.59997 0C2.96067 0 0 2.96067 0 6.59997C0 7.78603 0.315703 8.94084 0.915197 9.95468L0.0242646 13.1755L3.24526 12.2847C4.25909 12.8842 5.4139 13.1999 6.59997 13.1999C10.2393 13.1999 13.1999 10.2393 13.1999 6.59997ZM5.58718 5.06391H4.5744C4.5744 3.94695 5.483 3.03835 6.59997 3.03835C7.71693 3.03835 8.62553 3.94695 8.62553 5.06391C8.62553 5.63083 8.38552 6.17573 7.96683 6.55869L7.10636 7.34623V8.13602H6.09358V6.90024L7.28307 5.8115C7.49565 5.61699 7.61275 5.35153 7.61275 5.06391C7.61275 4.50543 7.15845 4.05113 6.59997 4.05113C6.04149 4.05113 5.58718 4.50543 5.58718 5.06391ZM6.09358 9.1488H7.10636V10.1616H6.09358V9.1488Z" fill="black"/>
</svg>
