<svg width="46" height="46" viewBox="0 0 46 46" fill="none" xmlns="http://www.w3.org/2000/svg">
<g clip-path="url(#clip0_3151_4489)">
<path d="M44.5614 21.5631H26.3535C25.56 21.5631 24.916 20.9192 24.916 20.1257C24.916 19.3322 25.56 18.6882 26.3535 18.6882H44.5614C45.3548 18.6882 45.9988 19.3322 45.9988 20.1257C45.9988 20.9192 45.3548 21.5631 44.5614 21.5631Z" fill="black"/>
<path d="M37.3736 28.7504C37.0055 28.7504 36.6377 28.6104 36.3577 28.329C35.7961 27.7671 35.7961 26.8568 36.3577 26.2953L42.5293 20.124L36.3577 13.9523C35.7961 13.3908 35.7961 12.4805 36.3577 11.919C36.9195 11.3571 37.8299 11.3571 38.3914 11.919L45.5786 19.1062C46.1401 19.6677 46.1401 20.5781 45.5786 21.1396L38.3914 28.3269C38.1096 28.6104 37.7418 28.7504 37.3736 28.7504Z" fill="black"/>
<path d="M15.333 46.0003C14.9227 46.0003 14.5335 45.9427 14.1447 45.822L2.6103 41.9792C1.04089 41.431 0 39.9686 0 38.334V3.83504C0 1.72097 1.71926 0.00170898 3.83333 0.00170898C4.24323 0.00170898 4.63242 0.0592634 5.02162 0.179987L16.5556 4.02279C18.1254 4.57096 19.1659 6.03333 19.1659 7.66802V42.1669C19.1659 44.281 17.447 46.0003 15.333 46.0003ZM3.83333 2.87662C3.30622 2.87662 2.87491 3.30793 2.87491 3.83504V38.334C2.87491 38.7421 3.14899 39.1215 3.53994 39.2576L15.0203 43.0832C15.1028 43.1099 15.2101 43.1254 15.333 43.1254C15.8601 43.1254 16.291 42.694 16.291 42.1669V7.66802C16.291 7.25987 16.017 6.88051 15.626 6.74434L4.14567 2.91873C4.0632 2.89206 3.95581 2.87662 3.83333 2.87662Z" fill="black"/>
<path d="M29.2283 15.3344C28.4348 15.3344 27.7908 14.6905 27.7908 13.897V5.27225C27.7908 3.95166 26.7159 2.87637 25.3953 2.87637H3.83345C3.03997 2.87637 2.396 2.2324 2.396 1.43892C2.396 0.645442 3.03997 0.00146484 3.83345 0.00146484H25.3953C28.3028 0.00146484 30.6657 2.3647 30.6657 5.27225V13.897C30.6657 14.6905 30.0217 15.3344 29.2283 15.3344Z" fill="black"/>
<path d="M25.3951 40.2502H17.7285C16.935 40.2502 16.291 39.6062 16.291 38.8128C16.291 38.0193 16.935 37.3753 17.7285 37.3753H25.3951C26.7157 37.3753 27.7907 36.3 27.7907 34.9794V26.3547C27.7907 25.5612 28.4346 24.9172 29.2281 24.9172C30.0216 24.9172 30.6656 25.5612 30.6656 26.3547V34.9794C30.6656 37.887 28.3027 40.2502 25.3951 40.2502Z" fill="black"/>
</g>
<defs>
<clipPath id="clip0_3151_4489">
<rect width="46" height="46" fill="white"/>
</clipPath>
</defs>
</svg>
