<svg width="24" height="26" viewBox="0 0 24 26" fill="none" xmlns="http://www.w3.org/2000/svg">
<path fill-rule="evenodd" clip-rule="evenodd" d="M9.23077 8.69539V22.416L14.7692 20.3391V16.3634H16.6154V20.3391C18.4006 21.0083 22.1538 22.416 22.1538 22.416V12.6711H24V25.08L15.6923 21.9646L8.30769 24.7338L0 21.6185V3.95446L8.30769 7.06985L10.4455 6.26862L11.0935 7.99662L9.23077 8.69539ZM7.38462 22.416V8.69539C5.59938 8.02616 1.84615 6.61846 1.84615 6.61846V20.3391L7.38462 22.416ZM17.3077 9.84L14.5385 14.6363L12.9397 13.7132L15.7089 8.91692L12.5114 7.07077L13.6255 5.14062L16.1474 4.46492L18.7255 0L23.5218 2.76923L23.0603 3.56862L20.9437 7.23416L21.6194 9.756L20.5052 11.6862L17.3077 9.84ZM15.3646 6.58616L19.4981 8.97323L18.9628 6.97385L21 3.44493L19.4012 2.52185L17.364 6.05077L15.3646 6.58616Z" fill="white"/>
</svg>
