<svg width="32" height="32" viewBox="0 0 32 32" fill="none" xmlns="http://www.w3.org/2000/svg">
<path d="M21.7693 29.2887L17.9629 26.611C17.4031 25.2116 16.4702 23.9679 15.4136 23.3578C13.7009 22.3691 12.3125 23.4186 12.3125 25.7023C12.3125 27.986 13.7009 30.6388 15.4136 31.6278C16.2256 32.0966 16.9641 32.1066 17.5168 31.745L21.7693 29.2887Z" fill="#23292E"/>
<path d="M29.7537 18.865C29.7537 17.8745 29.5017 16.9006 29.0212 16.0344L28.446 14.9971L12.7532 5.93701L2.30786 11.9961C1.49854 12.4634 1 13.3266 1 14.2612V19.228C1 19.8923 1.35425 20.5058 1.92969 20.8381L19.0381 30.7155C19.436 30.9453 19.8904 30.8815 20.209 30.6354L30.4512 24.6997C30.8013 24.5371 31.0615 24.1865 31.0615 23.7456C31.0615 22.0319 30.6106 20.3488 29.7537 18.865Z" fill="#2DAD57"/>
<path d="M28.4458 14.9973L24.637 6.86693C23.7112 4.89086 22.2017 3.24633 20.3118 2.15527L16.9436 0.210695C16.373 -0.118895 15.6929 -0.0463849 15.2095 0.320802L15.2002 0.310548L4.88745 6.29296L4.88892 6.29467C4.61279 6.46532 4.38574 6.72313 4.2561 7.05248L2.30762 11.9961L18.0002 21.0564L28.4458 14.9973Z" fill="#EDEDED"/>
<path d="M22.7428 21.0564H18.0006L17.4386 22.3162C17.3551 22.5034 17.4266 22.7239 17.6043 22.8264L19.1846 23.7388C19.1842 23.7373 19.1839 23.7356 19.1834 23.7341L19.1859 23.7395L21.9722 22.5999C22.4649 22.3982 22.8543 22.0049 23.0509 21.5105C23.1375 21.2927 22.9771 21.0564 22.7428 21.0564Z" fill="#EDEDED"/>
<path d="M11.22 23.223L7.41357 20.5451C6.85376 19.1459 5.92114 17.902 4.86426 17.2921C3.15161 16.3031 1.76318 17.3529 1.76318 19.6366C1.76318 21.9203 3.15161 24.5731 4.86426 25.5621C5.67627 26.0306 6.41479 26.0409 6.96753 25.6793L11.22 23.223Z" fill="#23292E"/>
<path d="M6.49805 6.2698L9.86621 8.21438C11.7561 9.30544 13.2656 10.95 14.1917 12.9263L18.0002 21.0564L2.30762 11.9961L4.2561 7.05251C4.60718 6.1614 5.6687 5.7908 6.49805 6.2698Z" fill="#CECECE"/>
<path d="M2.30786 11.9961C1.49854 12.4634 1 13.3267 1 14.2612V19.228C1 19.8923 1.35425 20.5058 1.92969 20.8381L19.0381 30.7155C19.7395 31.1206 20.616 30.6145 20.616 29.8047C20.616 28.0913 20.165 26.4079 19.3083 24.924C19.3083 23.9336 19.0562 22.9597 18.5759 22.0935L18.0005 21.0564L2.30786 11.9961Z" fill="#238342"/>
<path d="M18.5149 29.2834C18.5149 31.567 17.1265 32.6166 15.4136 31.6278C13.7009 30.6388 12.3125 27.986 12.3125 25.7023C12.3125 23.4186 13.7009 22.3691 15.4136 23.3578C17.1265 24.3466 18.5149 26.9997 18.5149 29.2834Z" fill="#2E373D"/>
<path d="M16.9382 28.3732C16.9382 29.496 16.2556 30.0121 15.4136 29.5258C14.5713 29.0397 13.8887 27.7353 13.8887 26.6125C13.8887 25.4897 14.5713 24.9736 15.4136 25.4599C16.2556 25.946 16.9382 27.2504 16.9382 28.3732Z" fill="#CECECE"/>
<path d="M16.2405 27.9704C16.2405 28.5793 15.8701 28.8591 15.4133 28.5954C14.9565 28.3317 14.5864 27.6245 14.5864 27.0153C14.5864 26.4065 14.9565 26.1264 15.4133 26.3901C15.8701 26.6538 16.2405 27.3613 16.2405 27.9704Z" fill="#627681"/>
<path d="M7.96558 23.2177C7.96558 25.5011 6.57715 26.5509 4.86426 25.5621C3.15161 24.5731 1.76318 21.9203 1.76318 19.6366C1.76318 17.3529 3.15161 16.3031 4.86426 17.2921C6.57715 18.2809 7.96558 20.934 7.96558 23.2177Z" fill="#2E373D"/>
<path d="M6.3894 22.3073C6.3894 23.4301 5.70679 23.9462 4.86475 23.4601C4.02246 22.9738 3.33984 21.6696 3.33984 20.5468C3.33984 19.424 4.02246 18.9079 4.86475 19.394C5.70679 19.8803 6.3894 21.1845 6.3894 22.3073Z" fill="#CECECE"/>
<path d="M5.69116 21.9045C5.69116 22.5137 5.3208 22.7935 4.86401 22.5298C4.40723 22.2661 4.03711 21.5586 4.03711 20.9497C4.03711 20.3406 4.40723 20.0608 4.86401 20.3245C5.3208 20.5881 5.69116 21.2957 5.69116 21.9045Z" fill="#627681"/>
<path d="M17.9866 19.5542L27.4592 14.0852L23.8501 6.53931L14.3984 11.9961L17.9866 19.5542Z" fill="#304E75"/>
<path d="M15.7498 19.1618L13.2449 13.8491C12.5557 12.3872 11.4363 11.1709 10.0366 10.3625L7.22192 8.73754C6.71021 8.44213 6.05542 8.67015 5.83789 9.21971L4.47852 12.6543L15.7498 19.1618Z" fill="#243B58"/>
<path d="M18.8232 9.44165L26.4351 13.8362L23.9302 8.57202C23.6719 8.02417 23.3533 7.51074 22.9819 7.04053L18.8232 9.44165Z" fill="#59718B"/>
<path d="M20.9861 23.8635L28.0305 19.8105C28.2505 19.684 28.53 19.8088 28.5827 20.0571C28.6897 20.5615 28.4597 21.0773 28.0134 21.3349L22.247 24.664C21.7961 24.9245 21.2231 24.8244 20.8872 24.4265C20.7375 24.249 20.7846 23.9792 20.9861 23.8635Z" fill="#23292E"/>
<path d="M19.1846 23.7388C19.0654 23.165 18.8623 22.6099 18.5759 22.0935L18.0005 21.0564L17.4387 22.3162C17.355 22.5034 17.4265 22.7239 17.6042 22.8264L19.1846 23.7388Z" fill="#EF9910"/>
<path d="M28.0869 19.0959L29.6499 17.7693C29.5339 17.1636 29.3227 16.5776 29.0215 16.0344L28.446 14.9971L26.7761 18.771C26.7036 18.9351 26.7688 19.1274 26.926 19.2136C27.3 19.4187 27.7617 19.3721 28.0869 19.0959Z" fill="#EDEDED"/>
</svg>
