<svg width="36" height="36" viewBox="0 0 36 36" fill="none" xmlns="http://www.w3.org/2000/svg">
<g clip-path="url(#clip0_2218_4019)">
<path d="M35.3801 19.4848C35.604 20.3202 35.1604 21.1648 34.3895 21.3714C33.6186 21.578 32.8079 18.5528 33.5789 18.3462C34.3498 18.1396 35.1563 18.6494 35.3801 19.4848Z" fill="url(#paint0_linear_2218_4019)"/>
<path d="M34.3897 21.3714C35.1606 21.1648 35.6042 20.3201 35.3803 19.4847C35.3167 19.2474 35.206 19.0365 35.0625 18.8607L33.2812 19.338C33.3702 20.2732 33.8883 21.5057 34.3897 21.3714Z" fill="url(#paint1_linear_2218_4019)"/>
<path d="M33.579 18.3462C33.5693 18.3488 33.56 18.3522 33.5508 18.3557L34.3604 21.3773C34.3701 21.3757 34.3799 21.374 34.3896 21.3714C35.1606 21.1648 35.6041 20.3202 35.3802 19.4848C35.1564 18.6494 34.35 18.1396 33.579 18.3462Z" fill="url(#paint2_linear_2218_4019)"/>
<path d="M11.3734 25.7904C13.3382 25.7904 14.931 24.1976 14.931 22.2328C14.931 20.2681 13.3382 18.6753 11.3734 18.6753C9.40868 18.6753 7.81592 20.2681 7.81592 22.2328C7.81592 24.1976 9.40868 25.7904 11.3734 25.7904Z" fill="url(#paint3_linear_2218_4019)"/>
<path d="M7.81592 22.2328C7.81592 24.1976 9.40871 25.7903 11.3734 25.7903C13.3382 25.7903 14.931 24.1976 14.931 22.2328C14.931 21.8073 14.856 21.3993 14.719 21.0211H8.02784C7.89087 21.3993 7.81592 21.8073 7.81592 22.2328Z" fill="url(#paint4_linear_2218_4019)"/>
<path d="M8.85773 24.7484C10.247 26.1377 12.4996 26.1377 13.8889 24.7484C15.2782 23.3591 15.2782 21.1066 13.8889 19.7173C13.588 19.4164 13.2465 19.181 12.8822 19.0104L8.15088 23.7417C8.32139 24.1061 8.55686 24.4475 8.85773 24.7484Z" fill="url(#paint5_linear_2218_4019)"/>
<path d="M8.85773 24.7484C10.247 26.1377 12.4996 26.1377 13.8889 24.7484C15.2782 23.3591 15.2782 21.1066 13.8889 19.7173C13.588 19.4164 13.2465 19.181 12.8822 19.0104L8.15088 23.7417C8.32139 24.1061 8.55686 24.4475 8.85773 24.7484Z" fill="url(#paint6_linear_2218_4019)"/>
<path d="M11.3735 24.5257C12.6398 24.5257 13.6663 23.4992 13.6663 22.2328C13.6663 20.9665 12.6398 19.9399 11.3735 19.9399C10.1071 19.9399 9.08057 20.9665 9.08057 22.2328C9.08057 23.4992 10.1071 24.5257 11.3735 24.5257Z" fill="url(#paint7_linear_2218_4019)"/>
<path d="M29.6581 25.7904C31.6229 25.7904 33.2156 24.1976 33.2156 22.2328C33.2156 20.2681 31.6229 18.6753 29.6581 18.6753C27.6933 18.6753 26.1006 20.2681 26.1006 22.2328C26.1006 24.1976 27.6933 25.7904 29.6581 25.7904Z" fill="url(#paint8_linear_2218_4019)"/>
<path d="M26.1006 22.2328C26.1006 24.1976 27.6934 25.7903 29.6581 25.7903C31.6229 25.7903 33.2156 24.1976 33.2156 22.2328C33.2156 21.8073 33.1407 21.3993 33.0037 21.0211H26.3125C26.1755 21.3993 26.1006 21.8073 26.1006 22.2328Z" fill="url(#paint9_linear_2218_4019)"/>
<path d="M27.1424 24.7484C28.5317 26.1377 30.7842 26.1377 32.1735 24.7484C33.5628 23.3591 33.5628 21.1066 32.1735 19.7173C31.8727 19.4164 31.5312 19.181 31.1669 19.0104L26.4355 23.7417C26.6061 24.1061 26.8415 24.4475 27.1424 24.7484Z" fill="url(#paint10_linear_2218_4019)"/>
<path d="M27.1424 24.7484C28.5317 26.1377 30.7842 26.1377 32.1735 24.7484C33.5628 23.3591 33.5628 21.1066 32.1735 19.7173C31.8727 19.4164 31.5312 19.181 31.1669 19.0104L26.4355 23.7417C26.6061 24.1061 26.8415 24.4475 27.1424 24.7484Z" fill="url(#paint11_linear_2218_4019)"/>
<path d="M29.6581 24.5257C30.9245 24.5257 31.951 23.4992 31.951 22.2328C31.951 20.9665 30.9245 19.9399 29.6581 19.9399C28.3918 19.9399 27.3652 20.9665 27.3652 22.2328C27.3652 23.4992 28.3918 24.5257 29.6581 24.5257Z" fill="url(#paint12_linear_2218_4019)"/>
<path d="M35.3129 22.7514H0.129395L1.23105 17.8082C1.3856 16.996 2.09407 16.3512 3.01467 16.186L3.95418 16.0178C3.95946 16.017 3.96557 16.0156 3.97085 16.0148C4.66111 15.8867 5.25286 15.4488 5.60744 14.8426C6.40226 13.4833 9.13903 9.66528 11.716 9.66528H20.3809C22.2699 9.66528 24.0338 10.4669 25.1249 11.8035C25.3211 12.0444 25.5173 12.2839 25.725 12.515C26.6024 13.4946 28.6489 15.6821 29.6165 15.9329L31.9584 16.581C32.9721 16.8615 33.771 17.6422 34.0749 18.6492L35.3129 22.7514Z" fill="url(#paint13_linear_2218_4019)"/>
<path d="M34.0751 18.6492C33.7713 17.6422 32.9722 16.8615 31.9585 16.581L29.6166 15.9329C28.6491 15.6821 26.6026 13.4947 25.7251 12.515C25.5175 12.2839 25.3212 12.0444 25.125 11.8035C24.0339 10.4669 22.27 9.66528 20.3811 9.66528H15.2104C17.0994 9.66528 18.8633 10.4669 19.9544 11.8035C20.1506 12.0444 20.3468 12.2839 20.5545 12.515C21.4319 13.4946 23.4784 15.6821 24.446 15.9329L26.7879 16.581C27.8016 16.8615 28.6006 17.6422 28.9044 18.6492L30.1424 22.7514H35.313L34.0751 18.6492Z" fill="url(#paint14_linear_2218_4019)"/>
<path d="M33.0166 18.5302H30.7525C30.5583 18.5302 30.4009 18.3727 30.4009 18.1785C30.4009 17.9843 30.5583 17.8269 30.7525 17.8269H33.0166C33.2108 17.8269 33.3683 17.9843 33.3683 18.1785C33.3683 18.3727 33.2108 18.5302 33.0166 18.5302Z" fill="url(#paint15_linear_2218_4019)"/>
<path d="M33.4009 19.5641H31.1368C30.9426 19.5641 30.7852 19.4067 30.7852 19.2125C30.7852 19.0183 30.9426 18.8608 31.1368 18.8608H33.4009C33.5951 18.8608 33.7526 19.0183 33.7526 19.2125C33.7526 19.4067 33.5951 19.5641 33.4009 19.5641Z" fill="url(#paint16_linear_2218_4019)"/>
<path d="M33.7852 20.598H31.5211C31.3269 20.598 31.1694 20.4406 31.1694 20.2464C31.1694 20.0522 31.3269 19.8948 31.5211 19.8948H33.7852C33.9794 19.8948 34.1368 20.0522 34.1368 20.2464C34.1368 20.4405 33.9794 20.598 33.7852 20.598Z" fill="url(#paint17_linear_2218_4019)"/>
<path d="M31.9587 16.581L29.6168 15.9329C28.6492 15.6821 26.6027 13.4947 25.7252 12.5149C25.5176 12.2838 25.3214 12.0444 25.1251 11.8034C24.6434 11.2133 24.0304 10.7277 23.3335 10.3691V15.2598C23.7616 15.6032 24.1533 15.857 24.4461 15.9329L26.788 16.581C27.8017 16.8614 28.6007 17.6422 28.9046 18.6491L30.1425 22.7514H35.3131L34.0752 18.6491C33.7713 17.6422 32.9724 16.8614 31.9587 16.581Z" fill="url(#paint18_linear_2218_4019)"/>
<path d="M1.23105 17.8083L0.129395 22.7514H35.3129L34.075 18.6492C33.7712 17.6423 32.9722 16.8615 31.9585 16.581L30.6119 16.2084H2.91061C2.04133 16.4021 1.37976 17.0271 1.23105 17.8083Z" fill="url(#paint19_linear_2218_4019)"/>
<path d="M14.2107 17.9438H13.1748C12.8795 17.9438 12.6401 17.7045 12.6401 17.4092C12.6401 17.1139 12.8795 16.8745 13.1748 16.8745H14.2107C14.506 16.8745 14.7454 17.1139 14.7454 17.4092C14.7454 17.7044 14.5059 17.9438 14.2107 17.9438Z" fill="url(#paint20_linear_2218_4019)"/>
<path d="M13.1301 21.7083L14.1732 22.7514H35.3129L34.075 18.6492C33.7712 17.6422 32.9721 16.8615 31.9584 16.581L29.6165 15.9329C28.649 15.6821 26.6024 13.4947 25.725 12.515C25.5174 12.2839 25.3211 12.0444 25.1249 11.8035C24.0338 10.4669 22.2699 9.66528 20.381 9.66528H11.7161C10.5744 10.8156 9.93359 12.3706 9.93359 13.9913C9.93359 16.8857 11.0834 19.6617 13.1301 21.7083Z" fill="url(#paint21_linear_2218_4019)"/>
<path d="M30.5935 19.4848C30.8173 20.3202 30.3738 21.1648 29.6029 21.3714C28.8319 21.578 28.0213 18.5528 28.7923 18.3462C29.5632 18.1396 30.3697 18.6494 30.5935 19.4848Z" fill="url(#paint22_linear_2218_4019)"/>
<path d="M29.603 21.3714C30.374 21.1648 30.8175 20.3201 30.5937 19.4847C30.5301 19.2474 30.4194 19.0365 30.2759 18.8607L28.4946 19.338C28.5836 20.2732 29.1016 21.5057 29.603 21.3714Z" fill="url(#paint23_linear_2218_4019)"/>
<path d="M28.7924 18.3462C28.7827 18.3488 28.7734 18.3522 28.7642 18.3557L29.5738 21.3773C29.5835 21.3757 29.5933 21.374 29.603 21.3714C30.374 21.1648 30.8175 20.3202 30.5936 19.4848C30.3699 18.6494 29.5634 18.1396 28.7924 18.3462Z" fill="url(#paint24_linear_2218_4019)"/>
<path d="M21.8404 16.0651H12.5107C11.7589 16.0651 11.1494 15.4556 11.1494 14.7039V12.1155C11.1494 11.3637 11.7589 10.7543 12.5107 10.7543H15.3397C16.8524 10.7543 18.2716 11.386 19.1356 12.4444C19.3204 12.6715 19.5312 12.929 19.7561 13.1807C20.7047 14.2376 21.4558 14.9858 22.0504 15.5173C22.2649 15.7088 22.1284 16.0651 21.8404 16.0651Z" fill="url(#paint25_linear_2218_4019)"/>
<path d="M21.8404 16.0651H12.5107C11.7589 16.0651 11.1494 15.4556 11.1494 14.7039V12.1155C11.1494 11.3637 11.7589 10.7543 12.5107 10.7543H15.3397C16.8524 10.7543 18.2716 11.386 19.1356 12.4444C19.3204 12.6715 19.5312 12.929 19.7561 13.1807C20.7047 14.2376 21.4558 14.9858 22.0504 15.5173C22.2649 15.7088 22.1284 16.0651 21.8404 16.0651Z" fill="url(#paint26_linear_2218_4019)"/>
<path d="M15.8361 10.7784C15.6721 10.7633 15.5066 10.7543 15.3397 10.7543H12.5107C11.7589 10.7543 11.1494 11.3637 11.1494 12.1155V14.7039C11.1494 15.4556 11.7589 16.0651 12.5107 16.0651H15.8361V10.7784Z" fill="url(#paint27_linear_2218_4019)"/>
<path d="M10.3962 11.6518C10.0939 12.3873 9.93359 13.1804 9.93359 13.9911C9.93359 14.5649 9.97859 15.1339 10.0671 15.6935C10.0974 15.8851 9.95054 16.0583 9.75668 16.0583H5.95812C5.70289 16.0583 5.55382 15.77 5.70289 15.5633C5.76898 15.4712 5.83156 15.3756 5.88992 15.2764C6.79132 13.7341 8.60279 11.5656 10.1231 10.9377C10.3856 10.8293 10.6461 11.1061 10.5244 11.3627C10.4793 11.458 10.4365 11.5544 10.3962 11.6518Z" fill="url(#paint28_linear_2218_4019)"/>
<path d="M10.3962 11.6518C10.0939 12.3873 9.93359 13.1804 9.93359 13.9911C9.93359 14.5649 9.97859 15.1339 10.0671 15.6935C10.0974 15.8851 9.95054 16.0583 9.75668 16.0583H5.95812C5.70289 16.0583 5.55382 15.77 5.70289 15.5633C5.76898 15.4712 5.83156 15.3756 5.88992 15.2764C6.79132 13.7341 8.60279 11.5656 10.1231 10.9377C10.3856 10.8293 10.6461 11.1061 10.5244 11.3627C10.4793 11.458 10.4365 11.5544 10.3962 11.6518Z" fill="url(#paint29_linear_2218_4019)"/>
<path d="M30.0953 16.0654H26.174C26.1732 16.0654 26.1725 16.0654 26.1717 16.0654C26.0269 16.0654 25.8839 16.0339 25.75 15.979C24.5395 15.4825 23.4412 14.7467 22.5241 13.8137C22.0423 13.3235 21.6073 12.8493 21.3084 12.5154C21.1003 12.284 20.9041 12.0443 20.708 11.8038C20.5008 11.5502 20.2689 11.3148 20.016 11.1012C19.8756 10.9826 19.9582 10.754 20.142 10.754H23.512C23.8692 10.754 24.2166 10.8714 24.5006 11.0894C25.1791 11.6097 25.6988 12.329 25.8661 12.5154C26.7436 13.4948 28.6491 15.6119 29.6166 15.8629L30.0953 16.0654Z" fill="url(#paint30_linear_2218_4019)"/>
<path d="M30.0953 16.0654H26.174C26.1732 16.0654 26.1725 16.0654 26.1717 16.0654C26.0269 16.0654 25.8839 16.0339 25.75 15.979C24.5395 15.4825 23.4412 14.7467 22.5241 13.8137C22.0423 13.3235 21.6073 12.8493 21.3084 12.5154C21.1003 12.284 20.9041 12.0443 20.708 11.8038C20.5008 11.5502 20.2689 11.3148 20.016 11.1012C19.8756 10.9826 19.9582 10.754 20.142 10.754H23.512C23.8692 10.754 24.2166 10.8714 24.5006 11.0894C25.1791 11.6097 25.6988 12.329 25.8661 12.5154C26.7436 13.4948 28.6491 15.6119 29.6166 15.8629L30.0953 16.0654Z" fill="url(#paint31_linear_2218_4019)"/>
<path d="M25.8661 12.5154C25.6987 12.329 25.1791 11.6097 24.5006 11.0894C24.2165 10.8714 23.8692 10.754 23.512 10.754H20.1419C19.9581 10.754 19.8757 10.9826 20.016 11.1012C20.2688 11.3148 20.5007 11.5502 20.7079 11.8038C20.9041 12.0443 21.1003 12.284 21.3084 12.5154C21.5238 12.756 21.8105 13.0699 22.1338 13.4097H26.6801C26.3654 13.0722 26.084 12.7586 25.8661 12.5154Z" fill="url(#paint32_linear_2218_4019)"/>
<path d="M35.1638 23.6932H0.836156C0.374344 23.6932 0 23.3189 0 22.8571V21.8618C0 21.4 0.374344 21.0256 0.836156 21.0256H35.1639C35.6257 21.0256 36.0001 21.4 36.0001 21.8618V22.8571C36 23.3189 35.6256 23.6932 35.1638 23.6932Z" fill="url(#paint33_linear_2218_4019)"/>
<path d="M35.1641 21.0256H28.7368C29.1986 21.0256 29.573 21.4 29.573 21.8617V22.8571C29.573 23.3189 29.1986 23.6932 28.7368 23.6932H35.1641C35.6259 23.6932 36.0002 23.3189 36.0002 22.8571V21.8617C36.0002 21.4 35.6259 21.0256 35.1641 21.0256Z" fill="url(#paint34_linear_2218_4019)"/>
<path d="M35.1641 21.0256H28.7368C29.1986 21.0256 29.573 21.4 29.573 21.8617V22.8571C29.573 23.3189 29.1986 23.6932 28.7368 23.6932H35.1641C35.6259 23.6932 36.0002 23.3189 36.0002 22.8571V21.8617C36.0002 21.4 35.6259 21.0256 35.1641 21.0256Z" fill="url(#paint35_linear_2218_4019)"/>
<path d="M35.1638 23.6932H0.836156C0.374344 23.6932 0 23.3189 0 22.8571V21.8618C0 21.4 0.374344 21.0256 0.836156 21.0256H35.1639C35.6257 21.0256 36.0001 21.4 36.0001 21.8618V22.8571C36 23.3189 35.6256 23.6932 35.1638 23.6932Z" fill="url(#paint36_linear_2218_4019)"/>
<path d="M7.62061 21.0256H15.836V23.6932H7.62061V21.0256Z" fill="url(#paint37_linear_2218_4019)"/>
<path d="M25.9873 21.0256H34.2027V23.6932H25.9873V21.0256Z" fill="url(#paint38_linear_2218_4019)"/>
<path d="M24.0503 26.3348C26.2055 26.3348 27.9526 24.5877 27.9526 22.4325C27.9526 20.2773 26.2055 18.5302 24.0503 18.5302C21.8951 18.5302 20.1479 20.2773 20.1479 22.4325C20.1479 24.5877 21.8951 26.3348 24.0503 26.3348Z" fill="url(#paint39_linear_2218_4019)"/>
<path d="M20.1479 22.4325C20.1479 24.5877 21.8951 26.3349 24.0503 26.3349C26.2055 26.3349 27.9526 24.5877 27.9526 22.4325C27.9526 21.9658 27.8704 21.5182 27.7201 21.1034H20.3805C20.2301 21.5182 20.1479 21.9657 20.1479 22.4325Z" fill="url(#paint40_linear_2218_4019)"/>
<path d="M21.291 25.1919C22.815 26.7158 25.2858 26.7158 26.8098 25.1919C28.3337 23.6679 28.3337 21.1971 26.8098 19.6731C26.4797 19.3431 26.1052 19.0848 25.7055 18.8977L20.5156 24.0876C20.7027 24.4873 20.961 24.8618 21.291 25.1919Z" fill="url(#paint41_linear_2218_4019)"/>
<path d="M24.0503 24.9477C25.4394 24.9477 26.5655 23.8216 26.5655 22.4325C26.5655 21.0434 25.4394 19.9174 24.0503 19.9174C22.6612 19.9174 21.5352 21.0434 21.5352 22.4325C21.5352 23.8216 22.6612 24.9477 24.0503 24.9477Z" fill="url(#paint42_linear_2218_4019)"/>
<path d="M24.0505 24.2877C25.0751 24.2877 25.9057 23.4571 25.9057 22.4325C25.9057 21.4079 25.0751 20.5773 24.0505 20.5773C23.0259 20.5773 22.1953 21.4079 22.1953 22.4325C22.1953 23.4571 23.0259 24.2877 24.0505 24.2877Z" fill="url(#paint43_linear_2218_4019)"/>
<path d="M22.1953 22.4324C22.1953 23.457 23.0259 24.2876 24.0505 24.2876C25.0751 24.2876 25.9057 23.457 25.9057 22.4324C25.9057 22.2105 25.8666 21.9978 25.7952 21.8005H22.3058C22.2344 21.9978 22.1953 22.2105 22.1953 22.4324Z" fill="url(#paint44_linear_2218_4019)"/>
<path d="M22.7388 23.7442C23.4633 24.4687 24.6379 24.4687 25.3624 23.7442C26.0869 23.0197 26.0869 21.8451 25.3624 21.1206C25.2055 20.9637 25.0274 20.8409 24.8375 20.752L22.3701 23.2193C22.4591 23.4093 22.5818 23.5873 22.7388 23.7442Z" fill="url(#paint45_linear_2218_4019)"/>
<path d="M5.76562 26.3348C7.92083 26.3348 9.66797 24.5877 9.66797 22.4325C9.66797 20.2773 7.92083 18.5302 5.76562 18.5302C3.61042 18.5302 1.86328 20.2773 1.86328 22.4325C1.86328 24.5877 3.61042 26.3348 5.76562 26.3348Z" fill="url(#paint46_linear_2218_4019)"/>
<path d="M1.86328 22.4325C1.86328 24.5877 3.61041 26.3349 5.76562 26.3349C7.92084 26.3349 9.66797 24.5877 9.66797 22.4325C9.66797 21.9658 9.58577 21.5182 9.43544 21.1034H2.0958C1.94548 21.5182 1.86328 21.9657 1.86328 22.4325Z" fill="url(#paint47_linear_2218_4019)"/>
<path d="M3.00636 25.1919C4.53032 26.7158 7.00117 26.7158 8.52512 25.1919C10.0491 23.6679 10.0491 21.1971 8.52512 19.6731C8.19507 19.3431 7.82052 19.0848 7.42086 18.8977L2.23096 24.0876C2.41806 24.4873 2.67632 24.8618 3.00636 25.1919Z" fill="url(#paint48_linear_2218_4019)"/>
<path d="M5.76564 24.9477C7.15471 24.9477 8.28079 23.8216 8.28079 22.4325C8.28079 21.0434 7.15471 19.9174 5.76564 19.9174C4.37656 19.9174 3.25049 21.0434 3.25049 22.4325C3.25049 23.8216 4.37656 24.9477 5.76564 24.9477Z" fill="url(#paint49_linear_2218_4019)"/>
<path d="M5.76535 24.2877C6.78995 24.2877 7.62055 23.4571 7.62055 22.4325C7.62055 21.4079 6.78995 20.5773 5.76535 20.5773C4.74076 20.5773 3.91016 21.4079 3.91016 22.4325C3.91016 23.4571 4.74076 24.2877 5.76535 24.2877Z" fill="url(#paint50_linear_2218_4019)"/>
<path d="M3.91016 22.4324C3.91016 23.457 4.74076 24.2876 5.76535 24.2876C6.78995 24.2876 7.62055 23.457 7.62055 22.4324C7.62055 22.2105 7.58145 21.9978 7.51002 21.8005H4.02076C3.94925 21.9978 3.91016 22.2105 3.91016 22.4324Z" fill="url(#paint51_linear_2218_4019)"/>
<path d="M4.45361 23.7442C5.17811 24.4687 6.35275 24.4687 7.07725 23.7442C7.80175 23.0197 7.80175 21.8451 7.07725 21.1206C6.92031 20.9637 6.74228 20.8409 6.5523 20.752L4.08496 23.2193C4.17391 23.4093 4.29667 23.5873 4.45361 23.7442Z" fill="url(#paint52_linear_2218_4019)"/>
<path d="M22.5319 14.3088L21.3008 16.9004L27.1518 22.7515H30.9745L22.5319 14.3088Z" fill="url(#paint53_linear_2218_4019)"/>
<path d="M21.8276 14.0127C21.401 14.0127 21.0552 14.3585 21.0552 14.7851V16.3357C21.0552 16.7623 21.401 17.1081 21.8276 17.1081C22.3723 17.1081 22.8138 16.6666 22.8138 16.1219V14.999C22.8138 14.4543 22.3723 14.0127 21.8276 14.0127Z" fill="url(#paint54_linear_2218_4019)"/>
<path d="M21.0552 15.3353V16.3357C21.0552 16.7623 21.401 17.1082 21.8276 17.1082C22.3723 17.1082 22.8138 16.6666 22.8138 16.122V15.3353H21.0552Z" fill="url(#paint55_linear_2218_4019)"/>
<path d="M21.8277 14.0127C21.7312 14.0127 21.6393 14.0312 21.5542 14.0635V17.0574C21.6393 17.0896 21.7312 17.1081 21.8277 17.1081C22.3724 17.1081 22.8139 16.6666 22.8139 16.1219V14.999C22.8139 14.4543 22.3724 14.0127 21.8277 14.0127Z" fill="url(#paint56_linear_2218_4019)"/>
</g>
<defs>
<linearGradient id="paint0_linear_2218_4019" x1="33.3478" y1="19.5501" x2="35.1852" y2="20.1589" gradientUnits="userSpaceOnUse">
<stop stop-color="#FEF0AE"/>
<stop offset="1" stop-color="#FAC600"/>
</linearGradient>
<linearGradient id="paint1_linear_2218_4019" x1="34.3877" y1="19.8302" x2="35.1703" y2="20.9966" gradientUnits="userSpaceOnUse">
<stop stop-color="#FE9738" stop-opacity="0"/>
<stop offset="1" stop-color="#FE9738"/>
</linearGradient>
<linearGradient id="paint2_linear_2218_4019" x1="34.2791" y1="19.8425" x2="35.4289" y2="19.937" gradientUnits="userSpaceOnUse">
<stop stop-color="#FE9738" stop-opacity="0"/>
<stop offset="1" stop-color="#FE9738"/>
</linearGradient>
<linearGradient id="paint3_linear_2218_4019" x1="9.99884" y1="20.8582" x2="13.2329" y2="24.0923" gradientUnits="userSpaceOnUse">
<stop stop-color="#5A5A5A"/>
<stop offset="1" stop-color="#444444"/>
</linearGradient>
<linearGradient id="paint4_linear_2218_4019" x1="11.3734" y1="22.2778" x2="11.3734" y2="26.4628" gradientUnits="userSpaceOnUse">
<stop stop-color="#433F43" stop-opacity="0"/>
<stop offset="1" stop-color="#1A1A1A"/>
</linearGradient>
<linearGradient id="paint5_linear_2218_4019" x1="11.4073" y1="22.2672" x2="14.5217" y2="25.3817" gradientUnits="userSpaceOnUse">
<stop stop-color="#433F43" stop-opacity="0"/>
<stop offset="1" stop-color="#1A1A1A"/>
</linearGradient>
<linearGradient id="paint6_linear_2218_4019" x1="14.2536" y1="22.8315" x2="10.3439" y2="22.0963" gradientUnits="userSpaceOnUse">
<stop stop-color="#433F43" stop-opacity="0"/>
<stop offset="1" stop-color="#1A1A1A"/>
</linearGradient>
<linearGradient id="paint7_linear_2218_4019" x1="13.8276" y1="22.9116" x2="9.53232" y2="21.7236" gradientUnits="userSpaceOnUse">
<stop stop-color="#433F43" stop-opacity="0"/>
<stop offset="1" stop-color="#1A1A1A"/>
</linearGradient>
<linearGradient id="paint8_linear_2218_4019" x1="28.2835" y1="20.8582" x2="31.5175" y2="24.0923" gradientUnits="userSpaceOnUse">
<stop stop-color="#5A5A5A"/>
<stop offset="1" stop-color="#444444"/>
</linearGradient>
<linearGradient id="paint9_linear_2218_4019" x1="29.6581" y1="22.2778" x2="29.6581" y2="26.4628" gradientUnits="userSpaceOnUse">
<stop stop-color="#433F43" stop-opacity="0"/>
<stop offset="1" stop-color="#1A1A1A"/>
</linearGradient>
<linearGradient id="paint10_linear_2218_4019" x1="29.6892" y1="22.2672" x2="32.8036" y2="25.3817" gradientUnits="userSpaceOnUse">
<stop stop-color="#433F43" stop-opacity="0"/>
<stop offset="1" stop-color="#1A1A1A"/>
</linearGradient>
<linearGradient id="paint11_linear_2218_4019" x1="32.5383" y1="22.8315" x2="28.6286" y2="22.0963" gradientUnits="userSpaceOnUse">
<stop stop-color="#433F43" stop-opacity="0"/>
<stop offset="1" stop-color="#1A1A1A"/>
</linearGradient>
<linearGradient id="paint12_linear_2218_4019" x1="32.1123" y1="22.9116" x2="27.817" y2="21.7236" gradientUnits="userSpaceOnUse">
<stop stop-color="#433F43" stop-opacity="0"/>
<stop offset="1" stop-color="#1A1A1A"/>
</linearGradient>
<linearGradient id="paint13_linear_2218_4019" x1="15.1449" y1="11.9524" x2="17.8379" y2="23.2408" gradientUnits="userSpaceOnUse">
<stop stop-color="#FFA1AE"/>
<stop offset="1" stop-color="#FF4565"/>
</linearGradient>
<linearGradient id="paint14_linear_2218_4019" x1="29.5754" y1="-0.379422" x2="22.2825" y2="27.6649" gradientUnits="userSpaceOnUse">
<stop stop-color="#FE0364" stop-opacity="0"/>
<stop offset="0.2343" stop-color="#F90362" stop-opacity="0.234"/>
<stop offset="0.5173" stop-color="#EA035B" stop-opacity="0.517"/>
<stop offset="0.8243" stop-color="#D20250" stop-opacity="0.824"/>
<stop offset="1" stop-color="#C00148"/>
</linearGradient>
<linearGradient id="paint15_linear_2218_4019" x1="31.8846" y1="18.4618" x2="31.8846" y2="17.6404" gradientUnits="userSpaceOnUse">
<stop stop-color="#FFA1AE"/>
<stop offset="1" stop-color="#FF4565"/>
</linearGradient>
<linearGradient id="paint16_linear_2218_4019" x1="32.2688" y1="19.4957" x2="32.2688" y2="18.6743" gradientUnits="userSpaceOnUse">
<stop stop-color="#FFA1AE"/>
<stop offset="1" stop-color="#FF4565"/>
</linearGradient>
<linearGradient id="paint17_linear_2218_4019" x1="32.6532" y1="20.5296" x2="32.6532" y2="19.7082" gradientUnits="userSpaceOnUse">
<stop stop-color="#FFA1AE"/>
<stop offset="1" stop-color="#FF4565"/>
</linearGradient>
<linearGradient id="paint18_linear_2218_4019" x1="29.6356" y1="16.4354" x2="32.267" y2="15.3828" gradientUnits="userSpaceOnUse">
<stop stop-color="#FE0364" stop-opacity="0"/>
<stop offset="0.2343" stop-color="#F90362" stop-opacity="0.234"/>
<stop offset="0.5173" stop-color="#EA035B" stop-opacity="0.517"/>
<stop offset="0.8243" stop-color="#D20250" stop-opacity="0.824"/>
<stop offset="1" stop-color="#C00148"/>
</linearGradient>
<linearGradient id="paint19_linear_2218_4019" x1="17.7212" y1="18.278" x2="17.7212" y2="21.5772" gradientUnits="userSpaceOnUse">
<stop stop-color="#FE0364" stop-opacity="0"/>
<stop offset="0.2343" stop-color="#F90362" stop-opacity="0.234"/>
<stop offset="0.5173" stop-color="#EA035B" stop-opacity="0.517"/>
<stop offset="0.8243" stop-color="#D20250" stop-opacity="0.824"/>
<stop offset="1" stop-color="#C00148"/>
</linearGradient>
<linearGradient id="paint20_linear_2218_4019" x1="13.6928" y1="17.8102" x2="13.6928" y2="16.5386" gradientUnits="userSpaceOnUse">
<stop stop-color="#FFA1AE"/>
<stop offset="1" stop-color="#FF4565"/>
</linearGradient>
<linearGradient id="paint21_linear_2218_4019" x1="16.4233" y1="19.5921" x2="8.37012" y2="23.4349" gradientUnits="userSpaceOnUse">
<stop stop-color="#FE0364" stop-opacity="0"/>
<stop offset="0.2343" stop-color="#F90362" stop-opacity="0.234"/>
<stop offset="0.5173" stop-color="#EA035B" stop-opacity="0.517"/>
<stop offset="0.8243" stop-color="#D20250" stop-opacity="0.824"/>
<stop offset="1" stop-color="#C00148"/>
</linearGradient>
<linearGradient id="paint22_linear_2218_4019" x1="28.5606" y1="19.5508" x2="30.3981" y2="20.1596" gradientUnits="userSpaceOnUse">
<stop stop-color="#FEF0AE"/>
<stop offset="1" stop-color="#FAC600"/>
</linearGradient>
<linearGradient id="paint23_linear_2218_4019" x1="29.6005" y1="19.831" x2="30.3831" y2="20.9973" gradientUnits="userSpaceOnUse">
<stop stop-color="#FE9738" stop-opacity="0"/>
<stop offset="1" stop-color="#FE9738"/>
</linearGradient>
<linearGradient id="paint24_linear_2218_4019" x1="29.492" y1="19.8432" x2="30.6417" y2="19.9377" gradientUnits="userSpaceOnUse">
<stop stop-color="#FE9738" stop-opacity="0"/>
<stop offset="1" stop-color="#FE9738"/>
</linearGradient>
<linearGradient id="paint25_linear_2218_4019" x1="14.5283" y1="10.5319" x2="17.3503" y2="16.9167" gradientUnits="userSpaceOnUse">
<stop stop-color="#B3DAFE"/>
<stop offset="1" stop-color="#0182FC"/>
</linearGradient>
<linearGradient id="paint26_linear_2218_4019" x1="16.6524" y1="12.5102" x2="16.6524" y2="10.3176" gradientUnits="userSpaceOnUse">
<stop stop-color="#314DC9" stop-opacity="0"/>
<stop offset="0.2761" stop-color="#304BC4" stop-opacity="0.276"/>
<stop offset="0.5628" stop-color="#2B45B8" stop-opacity="0.563"/>
<stop offset="0.8535" stop-color="#243BA3" stop-opacity="0.854"/>
<stop offset="1" stop-color="#1F3596"/>
</linearGradient>
<linearGradient id="paint27_linear_2218_4019" x1="12.6878" y1="13.4098" x2="10.8094" y2="13.4098" gradientUnits="userSpaceOnUse">
<stop stop-color="#314DC9" stop-opacity="0"/>
<stop offset="0.2761" stop-color="#304BC4" stop-opacity="0.276"/>
<stop offset="0.5628" stop-color="#2B45B8" stop-opacity="0.563"/>
<stop offset="0.8535" stop-color="#243BA3" stop-opacity="0.854"/>
<stop offset="1" stop-color="#1F3596"/>
</linearGradient>
<linearGradient id="paint28_linear_2218_4019" x1="7.82647" y1="13.3386" x2="9.54736" y2="14.2742" gradientUnits="userSpaceOnUse">
<stop stop-color="#B3DAFE"/>
<stop offset="1" stop-color="#0182FC"/>
</linearGradient>
<linearGradient id="paint29_linear_2218_4019" x1="8.4751" y1="13.7713" x2="7.10506" y2="12.7355" gradientUnits="userSpaceOnUse">
<stop stop-color="#314DC9" stop-opacity="0"/>
<stop offset="0.2761" stop-color="#304BC4" stop-opacity="0.276"/>
<stop offset="0.5628" stop-color="#2B45B8" stop-opacity="0.563"/>
<stop offset="0.8535" stop-color="#243BA3" stop-opacity="0.854"/>
<stop offset="1" stop-color="#1F3596"/>
</linearGradient>
<linearGradient id="paint30_linear_2218_4019" x1="22.4716" y1="10.2255" x2="27.6612" y2="16.9771" gradientUnits="userSpaceOnUse">
<stop stop-color="#B3DAFE"/>
<stop offset="1" stop-color="#0182FC"/>
</linearGradient>
<linearGradient id="paint31_linear_2218_4019" x1="24.519" y1="13.8977" x2="22.8147" y2="15.3764" gradientUnits="userSpaceOnUse">
<stop stop-color="#314DC9" stop-opacity="0"/>
<stop offset="0.2761" stop-color="#304BC4" stop-opacity="0.276"/>
<stop offset="0.5628" stop-color="#2B45B8" stop-opacity="0.563"/>
<stop offset="0.8535" stop-color="#243BA3" stop-opacity="0.854"/>
<stop offset="1" stop-color="#1F3596"/>
</linearGradient>
<linearGradient id="paint32_linear_2218_4019" x1="23.3127" y1="12.1963" x2="23.3127" y2="10.2374" gradientUnits="userSpaceOnUse">
<stop stop-color="#314DC9" stop-opacity="0"/>
<stop offset="0.2761" stop-color="#304BC4" stop-opacity="0.276"/>
<stop offset="0.5628" stop-color="#2B45B8" stop-opacity="0.563"/>
<stop offset="0.8535" stop-color="#243BA3" stop-opacity="0.854"/>
<stop offset="1" stop-color="#1F3596"/>
</linearGradient>
<linearGradient id="paint33_linear_2218_4019" x1="18" y1="21.419" x2="18" y2="23.5338" gradientUnits="userSpaceOnUse">
<stop stop-color="#F5FBFF"/>
<stop offset="1" stop-color="#DBD5EF"/>
</linearGradient>
<linearGradient id="paint34_linear_2218_4019" x1="32.3685" y1="14.101" x2="32.3685" y2="24.6657" gradientUnits="userSpaceOnUse">
<stop stop-color="#DBD5EF" stop-opacity="0"/>
<stop offset="0.2853" stop-color="#D9D2EE" stop-opacity="0.285"/>
<stop offset="0.4739" stop-color="#D4C9E9" stop-opacity="0.474"/>
<stop offset="0.6346" stop-color="#CBBAE2" stop-opacity="0.635"/>
<stop offset="0.7795" stop-color="#BFA5D7" stop-opacity="0.78"/>
<stop offset="0.9126" stop-color="#AF8ACA" stop-opacity="0.913"/>
<stop offset="1" stop-color="#A274BF"/>
</linearGradient>
<linearGradient id="paint35_linear_2218_4019" x1="33.5922" y1="22.3595" x2="36.1153" y2="22.3595" gradientUnits="userSpaceOnUse">
<stop stop-color="#DBD5EF" stop-opacity="0"/>
<stop offset="0.2853" stop-color="#D9D2EE" stop-opacity="0.285"/>
<stop offset="0.4739" stop-color="#D4C9E9" stop-opacity="0.474"/>
<stop offset="0.6346" stop-color="#CBBAE2" stop-opacity="0.635"/>
<stop offset="0.7795" stop-color="#BFA5D7" stop-opacity="0.78"/>
<stop offset="0.9126" stop-color="#AF8ACA" stop-opacity="0.913"/>
<stop offset="1" stop-color="#A274BF"/>
</linearGradient>
<linearGradient id="paint36_linear_2218_4019" x1="18" y1="21.82" x2="18" y2="23.6356" gradientUnits="userSpaceOnUse">
<stop stop-color="#DBD5EF" stop-opacity="0"/>
<stop offset="0.2853" stop-color="#D9D2EE" stop-opacity="0.285"/>
<stop offset="0.4739" stop-color="#D4C9E9" stop-opacity="0.474"/>
<stop offset="0.6346" stop-color="#CBBAE2" stop-opacity="0.635"/>
<stop offset="0.7795" stop-color="#BFA5D7" stop-opacity="0.78"/>
<stop offset="0.9126" stop-color="#AF8ACA" stop-opacity="0.913"/>
<stop offset="1" stop-color="#A274BF"/>
</linearGradient>
<linearGradient id="paint37_linear_2218_4019" x1="12.5816" y1="22.3595" x2="9.33848" y2="22.3595" gradientUnits="userSpaceOnUse">
<stop stop-color="#DBD5EF" stop-opacity="0"/>
<stop offset="0.2853" stop-color="#D9D2EE" stop-opacity="0.285"/>
<stop offset="0.4739" stop-color="#D4C9E9" stop-opacity="0.474"/>
<stop offset="0.6346" stop-color="#CBBAE2" stop-opacity="0.635"/>
<stop offset="0.7795" stop-color="#BFA5D7" stop-opacity="0.78"/>
<stop offset="0.9126" stop-color="#AF8ACA" stop-opacity="0.913"/>
<stop offset="1" stop-color="#A274BF"/>
</linearGradient>
<linearGradient id="paint38_linear_2218_4019" x1="30.9483" y1="22.3595" x2="27.7052" y2="22.3595" gradientUnits="userSpaceOnUse">
<stop stop-color="#DBD5EF" stop-opacity="0"/>
<stop offset="0.2853" stop-color="#D9D2EE" stop-opacity="0.285"/>
<stop offset="0.4739" stop-color="#D4C9E9" stop-opacity="0.474"/>
<stop offset="0.6346" stop-color="#CBBAE2" stop-opacity="0.635"/>
<stop offset="0.7795" stop-color="#BFA5D7" stop-opacity="0.78"/>
<stop offset="0.9126" stop-color="#AF8ACA" stop-opacity="0.913"/>
<stop offset="1" stop-color="#A274BF"/>
</linearGradient>
<linearGradient id="paint39_linear_2218_4019" x1="22.5424" y1="20.9246" x2="26.09" y2="24.4721" gradientUnits="userSpaceOnUse">
<stop stop-color="#5A5A5A"/>
<stop offset="1" stop-color="#444444"/>
</linearGradient>
<linearGradient id="paint40_linear_2218_4019" x1="24.0503" y1="22.4819" x2="24.0503" y2="27.0724" gradientUnits="userSpaceOnUse">
<stop stop-color="#433F43" stop-opacity="0"/>
<stop offset="1" stop-color="#1A1A1A"/>
</linearGradient>
<linearGradient id="paint41_linear_2218_4019" x1="24.0856" y1="22.4699" x2="27.5019" y2="25.8862" gradientUnits="userSpaceOnUse">
<stop stop-color="#433F43" stop-opacity="0"/>
<stop offset="1" stop-color="#1A1A1A"/>
</linearGradient>
<linearGradient id="paint42_linear_2218_4019" x1="24.9879" y1="23.3701" x2="22.0559" y2="20.4381" gradientUnits="userSpaceOnUse">
<stop stop-color="#433F43" stop-opacity="0"/>
<stop offset="1" stop-color="#1A1A1A"/>
</linearGradient>
<linearGradient id="paint43_linear_2218_4019" x1="23.3337" y1="21.7156" x2="25.0202" y2="23.4021" gradientUnits="userSpaceOnUse">
<stop stop-color="#F5FBFF"/>
<stop offset="1" stop-color="#DBD5EF"/>
</linearGradient>
<linearGradient id="paint44_linear_2218_4019" x1="24.0505" y1="22.4559" x2="24.0505" y2="24.6383" gradientUnits="userSpaceOnUse">
<stop stop-color="#DBD5EF" stop-opacity="0"/>
<stop offset="0.2853" stop-color="#D9D2EE" stop-opacity="0.285"/>
<stop offset="0.4739" stop-color="#D4C9E9" stop-opacity="0.474"/>
<stop offset="0.6346" stop-color="#CBBAE2" stop-opacity="0.635"/>
<stop offset="0.7795" stop-color="#BFA5D7" stop-opacity="0.78"/>
<stop offset="0.9126" stop-color="#AF8ACA" stop-opacity="0.913"/>
<stop offset="1" stop-color="#A274BF"/>
</linearGradient>
<linearGradient id="paint45_linear_2218_4019" x1="24.0674" y1="22.4515" x2="25.6916" y2="24.0757" gradientUnits="userSpaceOnUse">
<stop stop-color="#DBD5EF" stop-opacity="0"/>
<stop offset="0.2853" stop-color="#D9D2EE" stop-opacity="0.285"/>
<stop offset="0.4739" stop-color="#D4C9E9" stop-opacity="0.474"/>
<stop offset="0.6346" stop-color="#CBBAE2" stop-opacity="0.635"/>
<stop offset="0.7795" stop-color="#BFA5D7" stop-opacity="0.78"/>
<stop offset="0.9126" stop-color="#AF8ACA" stop-opacity="0.913"/>
<stop offset="1" stop-color="#A274BF"/>
</linearGradient>
<linearGradient id="paint46_linear_2218_4019" x1="4.25777" y1="20.9246" x2="7.80532" y2="24.4721" gradientUnits="userSpaceOnUse">
<stop stop-color="#5A5A5A"/>
<stop offset="1" stop-color="#444444"/>
</linearGradient>
<linearGradient id="paint47_linear_2218_4019" x1="5.76562" y1="22.4819" x2="5.76562" y2="27.0724" gradientUnits="userSpaceOnUse">
<stop stop-color="#433F43" stop-opacity="0"/>
<stop offset="1" stop-color="#1A1A1A"/>
</linearGradient>
<linearGradient id="paint48_linear_2218_4019" x1="5.80366" y1="22.4699" x2="9.21999" y2="25.8862" gradientUnits="userSpaceOnUse">
<stop stop-color="#433F43" stop-opacity="0"/>
<stop offset="1" stop-color="#1A1A1A"/>
</linearGradient>
<linearGradient id="paint49_linear_2218_4019" x1="6.70318" y1="23.3701" x2="3.77122" y2="20.4381" gradientUnits="userSpaceOnUse">
<stop stop-color="#433F43" stop-opacity="0"/>
<stop offset="1" stop-color="#1A1A1A"/>
</linearGradient>
<linearGradient id="paint50_linear_2218_4019" x1="5.04852" y1="21.7156" x2="6.73503" y2="23.4021" gradientUnits="userSpaceOnUse">
<stop stop-color="#F5FBFF"/>
<stop offset="1" stop-color="#DBD5EF"/>
</linearGradient>
<linearGradient id="paint51_linear_2218_4019" x1="5.76542" y1="22.4559" x2="5.76542" y2="24.6383" gradientUnits="userSpaceOnUse">
<stop stop-color="#DBD5EF" stop-opacity="0"/>
<stop offset="0.2853" stop-color="#D9D2EE" stop-opacity="0.285"/>
<stop offset="0.4739" stop-color="#D4C9E9" stop-opacity="0.474"/>
<stop offset="0.6346" stop-color="#CBBAE2" stop-opacity="0.635"/>
<stop offset="0.7795" stop-color="#BFA5D7" stop-opacity="0.78"/>
<stop offset="0.9126" stop-color="#AF8ACA" stop-opacity="0.913"/>
<stop offset="1" stop-color="#A274BF"/>
</linearGradient>
<linearGradient id="paint52_linear_2218_4019" x1="5.78502" y1="22.4515" x2="7.40918" y2="24.0757" gradientUnits="userSpaceOnUse">
<stop stop-color="#DBD5EF" stop-opacity="0"/>
<stop offset="0.2853" stop-color="#D9D2EE" stop-opacity="0.285"/>
<stop offset="0.4739" stop-color="#D4C9E9" stop-opacity="0.474"/>
<stop offset="0.6346" stop-color="#CBBAE2" stop-opacity="0.635"/>
<stop offset="0.7795" stop-color="#BFA5D7" stop-opacity="0.78"/>
<stop offset="0.9126" stop-color="#AF8ACA" stop-opacity="0.913"/>
<stop offset="1" stop-color="#A274BF"/>
</linearGradient>
<linearGradient id="paint53_linear_2218_4019" x1="23.9571" y1="18.1117" x2="21.4843" y2="16.9421" gradientUnits="userSpaceOnUse">
<stop stop-color="#FE0364" stop-opacity="0"/>
<stop offset="0.2343" stop-color="#F90362" stop-opacity="0.234"/>
<stop offset="0.5173" stop-color="#EA035B" stop-opacity="0.517"/>
<stop offset="0.8243" stop-color="#D20250" stop-opacity="0.824"/>
<stop offset="1" stop-color="#C00148"/>
</linearGradient>
<linearGradient id="paint54_linear_2218_4019" x1="21.2774" y1="15.1516" x2="21.9457" y2="15.6194" gradientUnits="userSpaceOnUse">
<stop stop-color="#5A5A5A"/>
<stop offset="1" stop-color="#444444"/>
</linearGradient>
<linearGradient id="paint55_linear_2218_4019" x1="21.9345" y1="15.8923" x2="21.9345" y2="16.8263" gradientUnits="userSpaceOnUse">
<stop stop-color="#433F43" stop-opacity="0"/>
<stop offset="1" stop-color="#1A1A1A"/>
</linearGradient>
<linearGradient id="paint56_linear_2218_4019" x1="21.8717" y1="15.5604" x2="22.6909" y2="15.5604" gradientUnits="userSpaceOnUse">
<stop stop-color="#433F43" stop-opacity="0"/>
<stop offset="1" stop-color="#1A1A1A"/>
</linearGradient>
<clipPath id="clip0_2218_4019">
<rect width="36" height="36" fill="white"/>
</clipPath>
</defs>
</svg>
