<svg width="32" height="32" viewBox="0 0 32 32" fill="none" xmlns="http://www.w3.org/2000/svg">
<path d="M26.1215 14.2854L24.8168 13.4653L23.5507 10.3735C23.0895 9.24777 22.2655 8.30831 21.2094 7.70455L17.7892 5.74972C16.6564 5.10226 15.3068 4.9504 14.0585 5.33004L11.4799 6.11447L9.99972 5.26754C9.83761 5.17501 9.66109 5.16622 9.50485 5.21603L9.50362 5.2153L9.49484 5.22018C9.41256 5.24801 9.33688 5.29196 9.27242 5.35031L0.313231 10.591C0.130615 10.6955 0 10.8906 0 11.1308V13.2985L0.521726 14.3596C0.876461 15.081 1.45678 15.6672 2.1748 16.029L13.1896 21.5798L21.3371 26.268C22.3576 26.8552 23.5695 27.0127 24.7057 26.7055C27.2142 26.0273 29.4728 24.6587 31.2301 22.7658C31.7279 22.2297 31.9999 21.5219 31.9999 20.7902V20.0984C30.4894 17.7536 28.4828 15.7695 26.1215 14.2854Z" fill="#ED5100"/>
<path d="M26.1213 14.2854L24.8166 13.4653L24.2851 13.7773L29.4702 20.5952L25.0095 23.0637L16.1521 18.551L15.7476 18.7886L17.0718 19.6208C18.6951 20.6411 20.873 23.0132 22.0637 24.3811C22.613 25.0125 23.4582 25.3003 24.2793 25.1396C27.4101 24.5264 30.1794 22.7183 31.9999 20.0981C30.4892 17.7537 28.4826 15.7695 26.1213 14.2854Z" fill="#E33400"/>
<path d="M7.30344 16.4629L4.78001 14.6877C4.40892 13.76 3.79052 12.9355 3.09008 12.531C1.95459 11.8755 1.03418 12.5713 1.03418 14.0854C1.03418 15.5994 1.95459 17.3579 3.09008 18.0134C3.62841 18.3242 4.11791 18.3308 4.48436 18.0911L7.30344 16.4629Z" fill="#23292E"/>
<path d="M21.7595 24.7383L19.2361 22.9631C18.865 22.0354 18.2466 21.2109 17.5461 20.8066C16.4106 20.1511 15.4902 20.8469 15.4902 22.3608C15.4902 23.8748 16.4106 25.6333 17.5461 26.2891C18.0845 26.5996 18.574 26.6064 18.9404 26.3667L21.7595 24.7383Z" fill="#23292E"/>
<path d="M24.2794 25.1396C23.4582 25.3003 22.6129 25.0124 22.0636 24.3811C20.873 23.0131 18.695 20.6411 17.072 19.6208L15.7475 18.7885L14.4814 15.6967C14.0205 14.571 13.1965 13.6316 12.1401 13.0278L8.72018 11.073C7.58737 10.4255 6.23777 10.2736 4.98924 10.6533L2.41063 11.4377L0.93066 10.591C0.516111 10.3537 0 10.653 0 11.1308V13.2985L0.521726 14.3596C0.876461 15.081 1.45678 15.6672 2.1748 16.029L13.1896 21.5798L21.3371 26.268C22.3576 26.8552 23.5695 27.0127 24.7057 26.7055C27.2142 26.0273 29.4728 24.6587 31.2301 22.7658C31.7279 22.2297 31.9999 21.5219 31.9999 20.7902V20.0984C30.1793 22.7182 27.4103 24.5263 24.2794 25.1396Z" fill="#872E02"/>
<path d="M2.41088 11.4378L11.4799 6.11452L9.99972 5.26759C9.83761 5.17506 9.66109 5.16627 9.50485 5.21608L9.50362 5.21535L9.49484 5.22023C9.41256 5.24806 9.33688 5.29201 9.27242 5.35036L0.313231 10.5911C0.130615 10.6956 0 10.8906 0 11.1309V13.2986L0.521726 14.3596C0.876461 15.0811 1.45678 15.6673 2.1748 16.0291L13.1896 21.5798L17.3837 23.9932V22.125L2.41088 11.4378Z" fill="#E33400"/>
<path d="M31.3435 21.4292V22.2471C29.6753 23.9368 27.6243 25.2664 25.364 25.9944L24.4712 26.2817V25.4043L25.8855 24.9529C27.7598 24.3547 29.4631 23.3154 30.8523 21.9221L31.3435 21.4292Z" fill="#23292E"/>
<path d="M19.602 24.7346C19.602 26.2485 18.6816 26.9443 17.5461 26.2888C16.4106 25.6333 15.4902 23.8748 15.4902 22.3608C15.4902 20.8469 16.4106 20.1511 17.5461 20.8066C18.6816 21.4622 19.602 23.2207 19.602 24.7346Z" fill="#2E373D"/>
<path d="M18.5571 24.1313C18.5571 24.8757 18.1047 25.2177 17.5464 24.8955C16.988 24.5732 16.5356 23.7084 16.5356 22.9641C16.5356 22.2197 16.988 21.8776 17.5464 22.1999C18.1047 22.5222 18.5571 23.3869 18.5571 24.1313Z" fill="#CECECE"/>
<path d="M18.0947 23.8642C18.0947 24.268 17.8491 24.4533 17.5464 24.2788C17.2437 24.104 16.998 23.635 16.998 23.2312C16.998 22.8276 17.2437 22.6418 17.5464 22.8169C17.8491 22.9914 18.0947 23.4604 18.0947 23.8642Z" fill="#627681"/>
<path d="M5.14598 16.4592C5.14598 17.9734 4.22557 18.6692 3.09008 18.0137C1.95459 17.3579 1.03418 15.5994 1.03418 14.0854C1.03418 12.5715 1.95459 11.8757 3.09008 12.5313C4.22557 13.1868 5.14598 14.9453 5.14598 16.4592Z" fill="#2E373D"/>
<path d="M4.10058 15.8559C4.10058 16.6003 3.64819 16.9423 3.08984 16.6201C2.53174 16.2978 2.0791 15.4331 2.0791 14.6887C2.0791 13.9443 2.53174 13.6022 3.08984 13.9245C3.64819 14.2468 4.10058 15.1115 4.10058 15.8559Z" fill="#CECECE"/>
<path d="M3.63818 15.5889C3.63818 15.9927 3.39257 16.178 3.08984 16.0032C2.78711 15.8284 2.5415 15.3594 2.5415 14.9558C2.5415 14.552 2.78711 14.3664 3.08984 14.5413C3.39257 14.7161 3.63818 15.185 3.63818 15.5889Z" fill="#627681"/>
<path d="M16.1523 18.551L24.2854 13.7771L23.0456 10.8335C22.8772 10.4333 22.3957 10.2714 22.0195 10.4887L15.4065 14.3066C14.9734 14.5566 14.7886 15.0859 14.9717 15.5512L16.1523 18.551Z" fill="#3B2F25"/>
<path d="M14.8604 18.562L13.751 15.6164C13.5418 15.061 13.1492 14.5937 12.6382 14.292L8.18899 11.6648C7.71585 11.3855 7.13846 11.3471 6.6326 11.5615L5.94413 11.8532C5.30302 12.125 5.24857 13.0127 5.8516 13.3608L14.8604 18.562Z" fill="#24170C"/>
<path d="M23.6257 13.5225L22.5166 10.5767C22.4934 10.5154 22.4673 10.4556 22.4397 10.3965C22.2988 10.3845 22.1526 10.4119 22.0193 10.4888L20.1953 11.5418L23.6257 13.5225Z" fill="#625951"/>
<path d="M30.7344 17.9719C30.6621 17.9719 30.5898 17.9924 30.52 18.0327L29.7129 18.4988L28.3394 19.1113L29.4705 20.5952C29.5413 20.6675 29.6343 20.7048 29.7266 20.7048C29.7988 20.7048 29.8711 20.6843 29.9409 20.6438L30.7483 20.1777C30.9573 20.0571 31.115 19.7646 31.115 19.4976V18.4214C31.115 18.1262 30.9233 17.9719 30.7344 17.9719Z" fill="#872E02"/>
<path d="M30.7344 17.9719C30.6621 17.9719 30.5898 17.9924 30.52 18.0327L29.7129 18.4988C29.5037 18.6194 29.3462 18.9119 29.3462 19.179V20.2554C29.3462 20.5505 29.5376 20.7048 29.7266 20.7048C29.7988 20.7048 29.8711 20.6843 29.9409 20.644L30.7483 20.178C30.9573 20.0571 31.115 19.7649 31.115 19.4978V18.4214C31.115 18.1262 30.9233 17.9719 30.7344 17.9719Z" fill="#E33400"/>
<path d="M30.634 19.9803L29.8269 20.4463C29.6873 20.5269 29.5742 20.4412 29.5742 20.2554V19.179C29.5742 18.993 29.6873 18.7769 29.8269 18.6963L30.634 18.2303C30.7737 18.1499 30.8867 18.2354 30.8867 18.4214V19.4976C30.8867 19.6836 30.7737 19.8997 30.634 19.9803Z" fill="white"/>
<path d="M13.028 19.532L6.27637 15.1196V17.5593L13.028 21.1868V19.532Z" fill="#872E02"/>
<path d="M6.27637 15.1196L9.15966 17.0039L7.22729 16.0691V17.7632L9.15966 19.1084L6.27637 17.5593V15.1196Z" fill="#23292E"/>
<path d="M24.6291 21.5378C24.5569 21.5378 24.4849 21.5583 24.4148 21.5989L23.6077 22.0649L21.7251 22.9043L23.3643 24.1606C23.4353 24.2334 23.5286 24.271 23.6213 24.271C23.6936 24.271 23.7659 24.2505 23.8357 24.21L24.6431 23.7439C24.852 23.6233 25.0098 23.3308 25.0098 23.0637V21.9875C25.0098 21.6924 24.8183 21.5378 24.6291 21.5378Z" fill="#872E02"/>
<path d="M24.6289 21.5378C24.5566 21.5378 24.4846 21.5583 24.4145 21.5989L23.6074 22.0649C23.3984 22.1855 23.2407 22.478 23.2407 22.7451V23.8213C23.2407 24.1165 23.4321 24.271 23.6213 24.271C23.6936 24.271 23.7656 24.2505 23.8357 24.21L24.6428 23.7439C24.852 23.6233 25.0095 23.3308 25.0095 23.0637V21.9875C25.0095 21.6924 24.8181 21.5378 24.6289 21.5378Z" fill="#E33400"/>
<path d="M24.529 23.5464L23.7217 24.0125C23.5823 24.0931 23.4692 24.0074 23.4692 23.8213V22.7452C23.4692 22.5591 23.5823 22.3431 23.7217 22.2625L24.529 21.7964C24.6685 21.7161 24.7815 21.8016 24.7815 21.9873V23.0638C24.7815 23.2498 24.6685 23.4659 24.529 23.5464Z" fill="white"/>
</svg>
