<svg width="44" height="46" viewBox="0 0 44 46" fill="none" xmlns="http://www.w3.org/2000/svg">
<path fill-rule="evenodd" clip-rule="evenodd" d="M35.8317 38.5494H7.88574C6.84707 38.5494 6.17547 37.4421 6.65575 36.5217L9.64008 30.7931V18.8207C9.64008 12.0884 15.1179 6.61133 21.8503 6.61133C28.5832 6.61133 34.0607 12.0884 34.0607 18.8207V30.7931L36.9466 36.3367C37.6897 37.5213 36.7722 38.5494 35.8317 38.5494ZM15.9769 26.3957C15.3084 26.3957 14.4368 26.5527 14.4368 25.8679C14.4368 25.1834 15.3087 25.3401 15.9769 25.3401C17.2771 25.3401 17.4317 23.4441 16.1835 23.2153C13.6462 22.75 14.0022 18.9938 16.5645 18.9938C17.2338 18.9938 18.1049 18.8368 18.1049 19.5216C18.1049 20.2061 17.234 20.0494 16.5645 20.0494C15.2662 20.0494 15.1026 21.9444 16.374 22.1774C18.8725 22.6347 18.5464 26.3959 15.9766 26.3959L15.9769 26.3957ZM21.8489 26.3888C20.6467 26.3888 19.6687 25.4106 19.6687 24.2083V21.1812C19.6687 19.9789 20.6467 19.0007 21.8487 19.0007C23.051 19.0007 24.0295 19.9787 24.0295 21.1812V24.2083C24.0295 25.4103 23.0515 26.3888 21.8492 26.3888H21.8489ZM21.8489 20.0563C21.2285 20.0563 20.724 20.5608 20.724 21.1812V24.2083C20.724 25.6911 22.9736 25.6911 22.9736 24.2083V21.1812C22.9736 20.5605 22.4693 20.0563 21.8489 20.0563ZM27.1331 26.3957C26.4644 26.3957 25.5928 26.5527 25.5928 25.8679C25.5928 25.1834 26.4652 25.3401 27.1331 25.3401C28.4333 25.3401 28.5876 23.4441 27.3402 23.2153C24.8024 22.7498 25.1587 18.9938 27.7213 18.9938C28.3902 18.9938 29.2613 18.8368 29.2613 19.5216C29.2613 20.2061 28.39 20.0494 27.721 20.0494C26.4227 20.0494 26.2591 21.9447 27.5302 22.1774C30.0285 22.6347 29.7028 26.3959 27.1331 26.3959V26.3957Z" fill="#F52D56"/>
<path fill-rule="evenodd" clip-rule="evenodd" d="M21.848 45.037C19.5941 45.037 17.6453 43.3291 16.7905 40.8612H26.9052C26.0517 43.3291 24.1032 45.037 21.8477 45.037H21.848Z" fill="#F52D56"/>
<path fill-rule="evenodd" clip-rule="evenodd" d="M21.8485 9.38498C19.261 9.38498 17.1562 7.28019 17.1562 4.69275C17.1562 2.10531 19.261 0 21.8485 0C24.4364 0 26.5418 2.10584 26.5418 4.69328C26.5418 7.28072 24.4367 9.38524 21.8485 9.38524V9.38498ZM21.8485 2.77401C20.7911 2.77401 19.9308 3.63508 19.9308 4.69302C19.9308 5.75095 20.7908 6.61097 21.8485 6.61097C22.9072 6.61097 23.7664 5.75069 23.7664 4.69302C23.7664 3.63535 22.9069 2.77401 21.8485 2.77401Z" fill="#F52D56"/>
<path fill-rule="evenodd" clip-rule="evenodd" d="M40.9765 20.1038C39.9603 20.1038 39.2639 19.016 39.7447 18.0821C42.429 12.8674 40.3743 6.44906 35.1596 3.76503C33.5362 2.9293 34.8057 0.465356 36.4289 1.29925C43.009 4.67941 45.5909 12.7785 42.2107 19.352C41.9656 19.8288 41.4806 20.1035 40.9765 20.1035V20.1038Z" fill="#F52D56"/>
<path fill-rule="evenodd" clip-rule="evenodd" d="M37.5005 18.3132C36.4842 18.3132 35.7876 17.2255 36.2684 16.2916C37.966 12.9943 36.6653 8.94066 33.3698 7.24411C31.7469 6.40864 33.0159 3.94338 34.6394 4.77832C39.2926 7.17154 41.135 12.9101 38.7344 17.5633C38.4885 18.0388 38.0037 18.3132 37.5005 18.3132Z" fill="#F52D56"/>
<path fill-rule="evenodd" clip-rule="evenodd" d="M2.71985 20.1038C2.21687 20.1038 1.73131 19.8291 1.4859 19.3515C-1.89532 12.7769 0.687893 4.68105 7.26746 1.29904C8.89276 0.463562 10.1594 2.93093 8.53677 3.76482C3.31993 6.44568 1.26898 12.8688 3.95195 18.0806C4.43249 19.0142 3.7345 20.1038 2.71958 20.1038H2.71985Z" fill="#F52D56"/>
<path fill-rule="evenodd" clip-rule="evenodd" d="M6.19707 18.3131C5.69436 18.3131 5.2088 18.0387 4.96312 17.561C2.56805 12.9036 4.39813 7.17354 9.05843 4.7761C10.6819 3.94089 11.9509 6.40615 10.3275 7.24189C7.03043 8.93896 5.73315 12.9942 7.42917 16.2907C7.90998 17.2254 7.21225 18.3134 6.1968 18.3134L6.19707 18.3131Z" fill="#F52D56"/>
</svg>
