<svg width="32" height="32" viewBox="0 0 32 32" fill="none" xmlns="http://www.w3.org/2000/svg">
<path d="M6.72607 22.6049C6.7644 22.5857 10.0058 20.7104 10.0058 20.7104L7.17016 18.7155C6.75317 17.6731 6.0581 16.7465 5.27099 16.292C3.99487 15.5554 2.96045 16.3374 2.96045 18.0388C2.96045 19.7399 3.99487 21.7165 5.27099 22.4531C5.8225 22.7714 6.32885 22.8056 6.72607 22.6049Z" fill="#23292E"/>
<path d="M23.0871 28.3257L20.2515 26.3308C19.8345 25.2883 19.1394 24.3618 18.3523 23.9072C17.0762 23.1704 16.042 23.9524 16.042 25.6538C16.042 27.3552 17.0762 29.3315 18.3523 30.0683C18.957 30.4175 19.5073 30.425 19.9192 30.1555L23.0871 28.3257Z" fill="#23292E"/>
<path d="M31.998 21.0327C31.9887 20.9407 31.9394 20.8523 31.8488 20.7981L31.4228 20.544V18.0362C31.4228 17.6319 31.2206 17.2564 30.8876 17.0332C30.8654 17.0183 25.8657 14.1309 25.8657 14.1309L24.6909 9.45511C24.5419 8.86185 24.1586 8.35453 23.6289 8.04886L13.0298 1.8638C12.6159 1.62503 12.1181 1.63407 11.7209 1.85892L3.44946 6.64164L3.4497 6.64188C3.29638 6.71756 3.15576 6.82328 3.03832 6.95902L1.4646 8.77591C1.14721 9.14237 0.972654 9.61087 0.972654 10.0957V12.3435L0 12.9573V13.9346C0 14.7954 0.457274 15.5916 1.20093 16.0252L2.36621 16.7051L2.76806 16.4143L3.25634 17.0706L20.4506 27.0398C20.4953 27.1883 20.5944 27.3172 20.7326 27.397L21.8493 28.0418C22.6154 28.4839 23.5593 28.4839 24.3251 28.0413L30.8881 24.2386C31.5764 23.8399 31.9999 23.1048 31.9999 22.3096V21.0315L31.998 21.0327Z" fill="#E7C712"/>
<path d="M4.69433 6.67988L15.2934 12.8649C15.8232 13.1706 16.2065 13.6779 16.3554 14.2712L17.5302 18.947L22.4838 21.8068C22.8574 22.0224 23.0874 22.4208 23.0874 22.8522V27.2285C23.0874 27.8225 22.4443 28.194 21.9296 27.8972L3.25634 17.0705L0.972656 14.0009V10.0957C0.972656 9.61103 1.14722 9.14228 1.4646 8.77583L3.03833 6.95893C3.45214 6.4809 4.14672 6.36396 4.69433 6.67988Z" fill="#C98000"/>
<path d="M7.58129 20.7065C7.58129 22.4077 6.54687 23.1897 5.27099 22.4531C3.99487 21.7163 2.96045 19.74 2.96045 18.0385C2.96045 16.3374 3.99487 15.5554 5.27099 16.292C6.54687 17.0288 7.58129 19.0051 7.58129 20.7065Z" fill="#2E373D"/>
<path d="M6.40722 20.0283C6.40722 20.865 5.89868 21.2493 5.27124 20.8872C4.6438 20.5249 4.13525 19.5533 4.13525 18.7168C4.13525 17.8802 4.6438 17.4959 5.27124 17.8579C5.89868 18.2202 6.40722 19.1919 6.40722 20.0283Z" fill="#CECECE"/>
<path d="M5.88696 19.7282C5.88696 20.1819 5.61133 20.3906 5.27099 20.1941C4.93066 19.9975 4.65479 19.4704 4.65479 19.0168C4.65479 18.5632 4.93066 18.3545 5.27099 18.551C5.61108 18.7475 5.88696 19.2746 5.88696 19.7282Z" fill="#2E373D"/>
<path d="M17.9179 18.2749L17.0207 14.4714C16.9214 14.0495 17.1118 13.6125 17.4885 13.3984L23.6618 9.8896C23.9287 9.73799 24.2666 9.88252 24.3413 10.1801L25.281 13.9314L17.9179 18.2749Z" fill="#304E75"/>
<path d="M6.21448 8.356L5.09217 7.70024C4.72205 7.48662 4.25526 7.54302 3.94691 7.83891L2.73671 9.00029C2.28871 9.43022 2.37904 10.17 2.91713 10.4795L6.21448 12.3907V8.356Z" fill="#243B58"/>
<path d="M6.88574 8.74829V12.7798L10.8284 15.0645V11.0515L6.88574 8.74829Z" fill="#243B58"/>
<path d="M11.5 15.4539L16.7024 18.469L15.7522 14.9614C15.5378 14.1694 15.0185 13.4946 14.3081 13.0845L11.5 11.4438V15.4539Z" fill="#243B58"/>
<path d="M24.7598 13.5371L23.8098 10.0295C23.7935 9.96899 23.772 9.91064 23.7519 9.85156C23.7214 9.86108 23.6909 9.8728 23.6616 9.88965L21.0249 11.3882L24.7598 13.5371Z" fill="#59718B"/>
<path d="M2.36621 14.3442V16.7051L1.20093 16.0251C0.457274 15.5916 0 14.7954 0 13.9346V12.9573L2.36621 14.3442Z" fill="#C98000"/>
<path d="M2.36621 14.3442L2.96069 14.001L0.972654 12.853V12.3435L0 12.9573L2.36621 14.3442Z" fill="#FFD613"/>
<path d="M2.96069 14.001V16.2747L2.36621 16.7051V14.3442L2.96069 14.001Z" fill="#EF9910"/>
<path d="M20.4233 24.8508L20.9744 24.5208L22.073 25.1548C22.7009 25.5173 23.4744 25.5186 24.1035 25.158L31.4228 20.9607V20.5439L31.8489 20.7983C32.052 20.9194 32.0498 21.2144 31.8449 21.3328L24.1846 25.7556C23.5056 26.1475 22.6689 26.1475 21.99 25.7556L20.4233 24.8508Z" fill="#FFD613"/>
<path d="M23.0872 25.4277V22.8523L22.7197 22.6401C22.5654 22.551 22.3726 22.6623 22.3726 22.8408V25.2957C22.6028 25.3826 22.8447 25.4272 23.0872 25.4277Z" fill="#EF9910"/>
<path d="M31.998 21.0327C32.0095 21.1472 31.9587 21.2671 31.8449 21.3328L24.1846 25.7554C23.5056 26.1475 22.6689 26.1475 21.99 25.7554L20.4233 24.8508V26.8613C20.4233 27.0823 20.5413 27.2864 20.7324 27.3967L21.8494 28.0417C22.6155 28.4839 23.5591 28.4836 24.3249 28.0413L30.8882 24.2385C31.5764 23.8398 32 23.1047 32 22.3096V21.0315L31.998 21.0327Z" fill="#C98000"/>
<path d="M24.1035 25.158L31.4228 20.9607V18.0361L23.0874 22.8523V25.4277C23.438 25.4282 23.7888 25.3384 24.1035 25.158Z" fill="#CECECE"/>
<path d="M24.5874 24.5788L23.78 25.0449C23.5469 25.1794 23.3579 25.0368 23.3579 24.726V23.6494C23.3579 23.3388 23.5469 22.9777 23.78 22.8435L24.5874 22.3772C24.8203 22.2426 25.0093 22.3855 25.0093 22.696V23.7727C25.0093 24.0832 24.8203 24.4443 24.5874 24.5788Z" fill="#EDEDED"/>
<path d="M30.8394 20.9668L30.0317 21.4328C29.7988 21.5673 29.6099 21.4245 29.6099 21.114V20.0373C29.6099 19.7268 29.7988 19.3657 30.0317 19.2312L30.8394 18.7651C31.0723 18.6306 31.2612 18.7734 31.2612 19.0839V20.1606C31.2612 20.4712 31.0723 20.8322 30.8394 20.9668Z" fill="#EDEDED"/>
<path d="M25.8962 23.8996L25.75 23.9841C25.6179 24.0602 25.5107 23.9794 25.5107 23.8032V22.0681C25.5107 21.9763 25.5598 21.8913 25.6392 21.8454L25.7856 21.7609C25.9177 21.6848 26.0249 21.7658 26.0249 21.9418V23.6769C26.0249 23.7687 25.9758 23.8537 25.8962 23.8996Z" fill="#2E373D"/>
<path d="M26.9548 23.2844L26.8086 23.3689C26.6763 23.4451 26.5693 23.3642 26.5693 23.188V21.4529C26.5693 21.3611 26.6184 21.2761 26.698 21.2302L26.8442 21.1457C26.9763 21.0696 27.0835 21.1504 27.0835 21.3266V23.0617C27.0835 23.1535 27.0344 23.2385 26.9548 23.2844Z" fill="#2E373D"/>
<path d="M28.0134 22.6692L27.8672 22.7536C27.7351 22.8298 27.6279 22.7488 27.6279 22.5727V20.8376C27.6279 20.7458 27.677 20.6609 27.7563 20.615L27.9028 20.5305C28.0349 20.4543 28.1421 20.5351 28.1421 20.7114V22.4465C28.1421 22.5383 28.093 22.623 28.0134 22.6692Z" fill="#2E373D"/>
<path d="M29.072 22.0537L28.9258 22.1384C28.7937 22.2146 28.6865 22.1335 28.6865 21.9575V20.2224C28.6865 20.1306 28.7356 20.0456 28.8152 19.9997L28.9614 19.9153C29.0935 19.8391 29.2007 19.9199 29.2007 20.0962V21.8313C29.2007 21.9231 29.1516 22.0078 29.072 22.0537Z" fill="#2E373D"/>
<path d="M20.6626 28.3215C20.6626 30.0229 19.6284 30.8049 18.3523 30.0683C17.0762 29.3315 16.042 27.3552 16.042 25.6538C16.042 23.9524 17.0762 23.1704 18.3523 23.9072C19.6284 24.6438 20.6626 26.6203 20.6626 28.3215Z" fill="#2E373D"/>
<path d="M19.4883 27.6436C19.4883 28.48 18.9797 28.8645 18.3523 28.5025C17.7249 28.1402 17.2163 27.1685 17.2163 26.3318C17.2163 25.4954 17.7249 25.1109 18.3523 25.4732C18.9797 25.8352 19.4883 26.8071 19.4883 27.6436Z" fill="#CECECE"/>
<path d="M18.9685 27.3435C18.9685 27.7971 18.6929 28.0056 18.3525 27.8091C18.0122 27.6128 17.7363 27.0857 17.7363 26.6321C17.7363 26.1782 18.0122 25.9697 18.3525 26.1663C18.6929 26.3628 18.9685 26.8897 18.9685 27.3435Z" fill="#2E373D"/>
<path d="M25.5112 14.3391L18.1357 18.5974L25.0095 21.7417L30.2488 18.7144L25.5112 14.3391Z" fill="#FFD613"/>
</svg>
